<svg width="515" height="417" viewBox="0 0 515 417" fill="none" xmlns="http://www.w3.org/2000/svg">
<path d="M161.025 359.407C177.99 364.991 194.762 364.293 208.611 356.297C242.426 336.774 246.607 280.795 218.025 231.29C189.444 181.786 138.874 157.416 105.059 176.94C91.103 184.997 82.2937 199.241 78.5722 216.595M119.184 198.678C147.817 186.293 181.49 202.966 202.889 240.029C224.287 277.093 220.794 315.915 196.204 333.568" stroke="#1561AB" stroke-width="5" stroke-miterlimit="10"/>
<path d="M135.995 194.328L127.944 170.466C123.536 170.765 119.17 171.384 115.071 172.714L123.165 196.897C127.296 195.376 131.512 194.497 135.995 194.328Z" stroke="#1561AB" stroke-miterlimit="10"/>
<path d="M184.274 216.218L173.418 183.78C167.999 180.343 162.556 177.611 157.016 175.453L166.07 202.538C172.358 205.992 178.558 210.533 184.274 216.218Z" stroke="#1561AB" stroke-miterlimit="10"/>
<path d="M123.165 196.898L115.072 172.714C111.692 173.802 108.354 175.21 105.134 177.07C104.49 177.442 103.845 177.813 103.276 178.315L111.327 202.177" stroke="#1561AB" stroke-miterlimit="10"/>
<path d="M165.996 202.408L156.942 175.323C151.949 173.368 146.858 171.987 141.884 171.058L150.169 195.821C155.517 197.399 160.768 199.551 165.996 202.408Z" stroke="#1561AB" stroke-miterlimit="10"/>
<path d="M150.243 195.951L141.958 171.187C137.241 170.455 132.566 170.044 128.051 170.404L136.102 194.266C140.66 194.227 145.409 194.768 150.243 195.951Z" stroke="#1561AB" stroke-miterlimit="10"/>
<path d="M206.912 324.102L215.966 351.187C219.811 347.93 223.067 344.149 225.809 339.974L214.954 307.536C213.227 313.717 210.621 319.369 206.912 324.102Z" stroke="#1561AB" stroke-miterlimit="10"/>
<path d="M196.493 333.573L204.779 358.337C206.142 357.723 207.43 356.979 208.718 356.235C211.295 354.748 213.721 353.001 215.999 350.995L206.945 323.91" stroke="#1561AB" stroke-miterlimit="10"/>
<path d="M173.419 183.78L184.274 216.218C191.168 222.952 197.544 231.02 202.856 240.221C216.174 263.289 220.052 288.351 214.879 307.407L225.735 339.845C229.037 334.655 231.675 328.812 233.617 322.507L191.74 197.912C185.885 192.48 179.717 187.747 173.419 183.78Z" stroke="#1561AB" stroke-miterlimit="10"/>
<path d="M192.407 362.197C196.698 361.447 200.797 360.118 204.778 358.337L196.493 333.573C196.278 333.697 196.063 333.821 195.849 333.945" stroke="#1561AB" stroke-miterlimit="10"/>
<path d="M191.815 198.041L233.692 322.637C236.444 313.273 237.547 302.787 236.936 291.563L214.925 226.169C208.061 215.272 200.358 205.896 191.815 198.041Z" stroke="#1561AB" stroke-miterlimit="10"/>
<path d="M214.957 225.977L236.967 291.371C235.878 272.129 229.762 251.124 218.239 231.167C217.159 229.544 216.005 227.792 214.957 225.977Z" stroke="#1561AB" stroke-miterlimit="10"/>
<path d="M92.7394 187.335C89.1285 191.494 86.1064 196.176 83.7804 201.32L87.2352 211.767" stroke="#1561AB" stroke-miterlimit="10"/>
<path d="M178.927 362.895C183.526 363.177 188.009 363.008 192.407 362.197L185.732 342.205" stroke="#1561AB" stroke-miterlimit="10"/>
<path d="M103.383 178.253C99.379 180.737 95.8559 183.808 92.7394 187.335L99.0309 206.166" stroke="#1561AB" stroke-miterlimit="10"/>
<path d="M164.443 360.371C169.352 361.684 174.144 362.546 178.926 362.895L174.671 350.319" stroke="#1561AB" stroke-miterlimit="10"/>
<path d="M164.444 360.371L162.791 355.278" stroke="#1561AB" stroke-miterlimit="10"/>
<path d="M146.33 372.384C174.492 356.124 178.027 309.523 154.225 268.298C130.424 227.072 88.2986 206.833 60.1365 223.092C31.9744 239.351 28.4396 285.952 52.2413 327.178C76.043 368.404 118.168 388.643 146.33 372.384Z" stroke="#1561AB" stroke-width="5" stroke-miterlimit="10"/>
<path d="M107.388 175.768L415.438 63.7487C429.153 58.2495 448.72 65.6138 460.018 85.1824C471.316 104.751 468.082 124.934 459.51 132.647L211.938 354.376" stroke="#1561AB" stroke-width="5" stroke-miterlimit="10" stroke-linecap="round"/>
<path d="M61.1348 222.343L119.183 198.678" stroke="#1561AB" stroke-width="5" stroke-miterlimit="10"/>
<path d="M147.403 371.764L196.922 333.326" stroke="#1561AB" stroke-width="5" stroke-miterlimit="10" stroke-linecap="round"/>
<path d="M196.132 143.538C263.051 158.295 302.349 247.607 268.231 304.068" stroke="#1561AB" stroke-width="3" stroke-miterlimit="10" stroke-linecap="round"/>
<path d="M254.452 122.827C314.224 133.841 345.967 219.912 308.515 268.033" stroke="#1561AB" stroke-width="3" stroke-miterlimit="10" stroke-linecap="round"/>
<path d="M312.754 101.089C364.095 110.922 393.529 189.073 358.099 223.509" stroke="#1561AB" stroke-width="3" stroke-miterlimit="10" stroke-linecap="round"/>
<path d="M360.828 83.7004C403.352 91.8015 427.864 152.254 396.908 188.834" stroke="#1561AB" stroke-width="3" stroke-miterlimit="10" stroke-linecap="round"/>
<path d="M398.804 69.8958C432.126 70.1658 459.23 125.249 428.424 160.617" stroke="#1561AB" stroke-width="3" stroke-miterlimit="10" stroke-linecap="round"/>
<path d="M224.693 244.328L467.686 101.998" stroke="#1561AB" stroke-width="11" stroke-miterlimit="10"/>
<path d="M220.077 234.598L463.872 93.8424" stroke="#1561AB" stroke-width="5" stroke-miterlimit="10"/>
<path d="M52.0654 317.386L149.385 261.58" stroke="#1561AB" stroke-width="11" stroke-miterlimit="10"/>
<path d="M57.7072 327.041L155.036 270.194" stroke="#1561AB" stroke-width="5" stroke-miterlimit="10"/>
<path d="M162.856 286.469L210.855 257.547" stroke="#1561AB" stroke-width="11" stroke-miterlimit="10"/>
<path d="M157.036 273.414L205.581 244.695" stroke="#1561AB" stroke-width="5" stroke-miterlimit="10"/>
<path d="M161.125 357.103C161.125 357.103 166.018 355.66 145.084 367.746C118.461 383.117 78.627 363.954 56.106 324.947C33.5849 285.939 37.43 242.768 63.4546 226.36C72.3551 220.703 78.5034 218.708 78.5034 218.708" stroke="#1561AB" stroke-miterlimit="10"/>
<path d="M65.4297 219.864C93.5558 203.625 133.578 225.098 157.371 266.309C181.164 307.52 179.824 353.046 151.698 369.285" stroke="#1561AB" stroke-miterlimit="10"/>
<path d="M346.213 88.942C344.13 91.0248 344.13 94.4017 346.213 96.4845C348.295 98.5673 351.672 98.5673 353.755 96.4845C355.838 94.4017 355.838 91.0248 353.755 88.942C351.672 86.8592 348.295 86.8592 346.213 88.942ZM287.401 45.0748L349.368 93.5012L350.6 91.9253L288.633 43.4989L287.401 45.0748Z" fill="#027DE2"/>
<path d="M226.261 276.261C228.344 274.179 228.344 270.802 226.261 268.719C224.179 266.636 220.802 266.636 218.719 268.719C216.636 270.802 216.636 274.179 218.719 276.261C220.802 278.344 224.179 278.344 226.261 276.261ZM288.792 323.035L223.106 271.702L221.874 273.278L287.561 324.611L288.792 323.035Z" fill="#027DE2"/>
<path d="M186.771 311.331C188.854 309.248 188.854 305.871 186.771 303.789C184.688 301.706 181.311 301.706 179.228 303.789C177.146 305.871 177.146 309.248 179.228 311.331C181.311 313.414 184.688 313.414 186.771 311.331ZM280.268 382.305L183.615 306.772L182.384 308.348L279.037 383.881L280.268 382.305Z" fill="#027DE2"/>
<path d="M290.992 326.264L290.992 333L292.56 333L292.56 327.704L295.28 327.704L295.28 333L296.848 333L296.848 326.264L290.992 326.264ZM303.556 330.728C303.412 330.984 303.204 331.256 302.932 331.464C302.612 331.704 302.292 331.8 301.86 331.8C301.476 331.8 301.028 331.736 300.66 331.368C300.324 331.032 300.116 330.488 300.084 330.008L304.916 330.008L304.916 329.816C304.916 329.112 304.836 327.864 303.972 326.968C303.572 326.552 302.884 326.088 301.812 326.088C300.852 326.088 300.116 326.44 299.556 327C298.852 327.72 298.484 328.728 298.484 329.768C298.484 330.776 298.836 331.704 299.476 332.344C300.116 332.984 300.852 333.208 301.748 333.208C302.468 333.208 303.188 333.048 303.732 332.696C304.164 332.424 304.58 331.976 304.868 331.464L303.556 330.728ZM300.196 328.728C300.276 328.392 300.452 328.072 300.676 327.864C300.884 327.656 301.236 327.432 301.78 327.432C302.292 327.432 302.628 327.624 302.836 327.816C303.076 328.04 303.252 328.36 303.316 328.728L300.196 328.728ZM306.554 333L308.123 333L308.123 330.2L310.907 330.2L310.907 333L312.475 333L312.475 326.264L310.907 326.264L310.907 328.76L308.123 328.76L308.123 326.264L306.554 326.264L306.554 333ZM317.709 326.088C315.677 326.088 314.109 327.56 314.109 329.64C314.109 331.704 315.677 333.208 317.709 333.208C319.741 333.208 321.309 331.704 321.309 329.64C321.309 327.56 319.741 326.088 317.709 326.088ZM317.709 331.8C316.477 331.8 315.709 330.952 315.709 329.656C315.709 328.12 316.717 327.496 317.709 327.496C318.701 327.496 319.709 328.12 319.709 329.656C319.709 330.952 318.941 331.8 317.709 331.8ZM322.945 326.264L322.945 333L324.513 333L324.513 327.704L327.233 327.704L327.233 333L328.801 333L328.801 326.264L322.945 326.264ZM334.037 326.088C332.005 326.088 330.437 327.56 330.437 329.64C330.437 331.704 332.005 333.208 334.037 333.208C336.069 333.208 337.637 331.704 337.637 329.64C337.637 327.56 336.069 326.088 334.037 326.088ZM334.037 331.8C332.805 331.8 332.037 330.952 332.037 329.656C332.037 328.12 333.045 327.496 334.037 327.496C335.029 327.496 336.037 328.12 336.037 329.656C336.037 330.952 335.269 331.8 334.037 331.8ZM344.809 326.264L339.753 326.264L339.753 330.376C339.753 330.632 339.721 331 339.513 331.256C339.305 331.496 338.873 331.672 338.409 331.56L338.409 333C339.129 333.112 340.009 332.984 340.617 332.312C341.177 331.704 341.257 330.952 341.257 330.376L341.257 327.704L343.241 327.704L343.241 333L344.809 333L344.809 326.264ZM346.789 326.264L346.789 333.512L351.397 329.08L351.397 333L352.965 333L352.965 325.656L348.357 330.088L348.357 326.264L346.789 326.264ZM354.449 336.664L356.209 336.664L361.569 326.264L359.809 326.264L357.857 330.2L355.937 326.264L354.049 326.264L356.929 331.944L354.449 336.664ZM364.232 332.216C364.936 333.08 365.88 333.208 366.248 333.208C367.848 333.208 369.512 331.864 369.512 329.592C369.512 327.448 368.008 326.088 366.232 326.088C365.56 326.088 364.808 326.312 364.232 327L364.232 326.264L362.664 326.264L362.664 336.664L364.232 336.664L364.232 332.216ZM366.04 327.496C367.176 327.496 367.912 328.456 367.912 329.656C367.912 330.824 367.176 331.8 366.04 331.8C365.048 331.8 364.136 331.08 364.136 329.672C364.136 328.2 365.048 327.496 366.04 327.496ZM375.868 330.728C375.724 330.984 375.516 331.256 375.244 331.464C374.924 331.704 374.604 331.8 374.172 331.8C373.788 331.8 373.34 331.736 372.972 331.368C372.636 331.032 372.428 330.488 372.396 330.008L377.228 330.008L377.228 329.816C377.228 329.112 377.148 327.864 376.284 326.968C375.884 326.552 375.196 326.088 374.124 326.088C373.164 326.088 372.428 326.44 371.868 327C371.164 327.72 370.796 328.728 370.796 329.768C370.796 330.776 371.148 331.704 371.788 332.344C372.428 332.984 373.164 333.208 374.06 333.208C374.78 333.208 375.5 333.048 376.044 332.696C376.476 332.424 376.892 331.976 377.18 331.464L375.868 330.728ZM372.508 328.728C372.588 328.392 372.764 328.072 372.988 327.864C373.196 327.656 373.548 327.432 374.092 327.432C374.604 327.432 374.94 327.624 375.148 327.816C375.388 328.04 375.564 328.36 375.628 328.728L372.508 328.728ZM383.507 327.704L383.507 326.264L378.003 326.264L378.003 327.704L379.971 327.704L379.971 333L381.539 333L381.539 327.704L383.507 327.704ZM389.389 327.048C388.749 326.216 387.885 326.088 387.389 326.088C385.613 326.088 384.109 327.432 384.109 329.624C384.109 331.48 385.293 333.208 387.373 333.208C387.853 333.208 388.701 333.096 389.389 332.296L389.389 333L390.957 333L390.957 326.264L389.389 326.264L389.389 327.048ZM387.581 327.496C388.573 327.496 389.485 328.2 389.485 329.672C389.485 331.08 388.573 331.8 387.581 331.8C386.445 331.8 385.709 330.824 385.709 329.656C385.709 328.456 386.445 327.496 387.581 327.496ZM392.945 333L394.513 333L394.513 330.2L397.297 330.2L397.297 333L398.865 333L398.865 326.264L397.297 326.264L397.297 328.76L394.513 328.76L394.513 326.264L392.945 326.264L392.945 333Z" fill="#027DE2"/>
<path d="M291.208 384.568C290.488 384.168 289.88 384.088 289.368 384.088C288.04 384.088 287.192 384.552 286.664 385.08C286.168 385.576 285.64 386.424 285.64 387.688C285.64 388.92 286.12 389.72 286.6 390.216C287.24 390.888 288.04 391.208 289.16 391.208C290.2 391.208 290.824 390.92 291.208 390.68L291.208 388.936C290.664 389.544 289.912 389.8 289.272 389.8C288.696 389.8 288.2 389.592 287.848 389.256C287.544 388.952 287.24 388.424 287.24 387.64C287.24 386.888 287.528 386.376 287.816 386.088C288.104 385.8 288.568 385.496 289.304 385.496C289.784 385.496 290.488 385.624 291.208 386.328L291.208 384.568ZM297.507 385.704L297.507 384.264L292.003 384.264L292.003 385.704L293.971 385.704L293.971 391L295.539 391L295.539 385.704L297.507 385.704ZM303.389 385.048C302.749 384.216 301.885 384.088 301.389 384.088C299.613 384.088 298.109 385.432 298.109 387.624C298.109 389.48 299.293 391.208 301.373 391.208C301.853 391.208 302.701 391.096 303.389 390.296L303.389 391L304.957 391L304.957 384.264L303.389 384.264L303.389 385.048ZM301.581 385.496C302.573 385.496 303.485 386.2 303.485 387.672C303.485 389.08 302.573 389.8 301.581 389.8C300.445 389.8 299.709 388.824 299.709 387.656C299.709 386.456 300.445 385.496 301.581 385.496ZM312.481 384.264L307.425 384.264L307.425 388.376C307.425 388.632 307.393 389 307.185 389.256C306.977 389.496 306.545 389.672 306.081 389.56L306.081 391C306.801 391.112 307.681 390.984 308.289 390.312C308.849 389.704 308.929 388.952 308.929 388.376L308.929 385.704L310.913 385.704L310.913 391L312.481 391L312.481 384.264ZM314.461 391L316.909 391C317.581 391 318.285 391 318.877 390.424C319.181 390.12 319.485 389.592 319.485 388.808C319.485 388.408 319.405 387.832 318.957 387.336C318.349 386.664 317.581 386.648 316.925 386.648L316.029 386.648L316.029 384.264L314.461 384.264L314.461 391ZM316.029 389.656L316.029 387.992L316.765 387.992C317.005 387.992 317.325 387.992 317.581 388.152C317.773 388.28 317.917 388.488 317.917 388.824C317.917 389.24 317.677 389.432 317.565 389.512C317.357 389.64 317.053 389.656 316.749 389.656L316.029 389.656ZM320.867 391L322.435 391L322.435 388.2L325.219 388.2L325.219 391L326.787 391L326.787 384.264L325.219 384.264L325.219 386.76L322.435 386.76L322.435 384.264L320.867 384.264L320.867 391ZM333.701 385.048C333.061 384.216 332.197 384.088 331.701 384.088C329.925 384.088 328.421 385.432 328.421 387.624C328.421 389.48 329.605 391.208 331.685 391.208C332.165 391.208 333.013 391.096 333.701 390.296L333.701 391L335.269 391L335.269 384.264L333.701 384.264L333.701 385.048ZM331.893 385.496C332.885 385.496 333.797 386.2 333.797 387.672C333.797 389.08 332.885 389.8 331.893 389.8C330.757 389.8 330.021 388.824 330.021 387.656C330.021 386.456 330.757 385.496 331.893 385.496ZM336.394 391L338.234 391L340.074 388.52L340.394 388.52L340.394 391L341.962 391L341.962 384.264L339.45 384.264C338.762 384.264 338.074 384.328 337.498 384.872C336.97 385.368 336.874 385.992 336.874 386.424C336.874 386.904 337.002 387.4 337.434 387.816C337.69 388.056 338.058 388.264 338.506 388.328L336.394 391ZM340.394 387.24L339.466 387.24C339.082 387.24 338.794 387.208 338.602 387.08C338.442 386.968 338.282 386.76 338.282 386.424C338.282 386.12 338.458 385.88 338.666 385.752C338.89 385.624 339.178 385.608 339.482 385.608L340.394 385.608L340.394 387.24ZM352.32 385.704L352.32 384.264L346.815 384.264L346.815 385.704L348.784 385.704L348.784 391L350.352 391L350.352 385.704L352.32 385.704ZM355.013 390.216C355.717 391.08 356.661 391.208 357.029 391.208C358.629 391.208 360.293 389.864 360.293 387.592C360.293 385.448 358.789 384.088 357.013 384.088C356.341 384.088 355.589 384.312 355.013 385L355.013 384.264L353.445 384.264L353.445 394.664L355.013 394.664L355.013 390.216ZM356.821 385.496C357.957 385.496 358.693 386.456 358.693 387.656C358.693 388.824 357.957 389.8 356.821 389.8C355.829 389.8 354.917 389.08 354.917 387.672C354.917 386.2 355.829 385.496 356.821 385.496ZM361.433 394.664L363.193 394.664L368.554 384.264L366.794 384.264L364.842 388.2L362.922 384.264L361.033 384.264L363.913 389.944L361.433 394.664ZM374.736 379.64C374.656 379.912 374.432 380.28 373.456 380.52L372.336 380.792C371.424 381.016 370.816 381.496 370.32 382.232C369.552 383.352 369.296 384.84 369.296 386.856C369.296 387.784 369.328 389.272 370.432 390.312C370.896 390.76 371.712 391.208 372.896 391.208C374.928 391.208 376.496 389.72 376.496 387.608C376.496 386.52 376.096 385.64 375.52 385.048C374.96 384.472 374.192 384.088 373.168 384.088C372.512 384.088 371.472 384.232 370.88 385.032L370.864 385.032C370.88 384.488 371.056 383.704 371.424 383.208C371.904 382.552 372.544 382.376 373.168 382.2L374.224 381.912C375.312 381.608 376.112 380.744 376.336 379.64L374.736 379.64ZM372.896 389.8C371.664 389.8 370.896 388.952 370.896 387.656C370.896 386.12 371.904 385.496 372.896 385.496C373.888 385.496 374.896 386.12 374.896 387.656C374.896 388.952 374.128 389.8 372.896 389.8ZM383.061 385.048C382.421 384.216 381.557 384.088 381.061 384.088C379.285 384.088 377.781 385.432 377.781 387.624C377.781 389.48 378.965 391.208 381.045 391.208C381.525 391.208 382.373 391.096 383.061 390.296L383.061 391L384.629 391L384.629 384.264L383.061 384.264L383.061 385.048ZM381.253 385.496C382.245 385.496 383.157 386.2 383.157 387.672C383.157 389.08 382.245 389.8 381.253 389.8C380.117 389.8 379.381 388.824 379.381 387.656C379.381 386.456 380.117 385.496 381.253 385.496Z" fill="#027DE2"/>
<path d="M153.904 39.008C154.096 38.8 154.304 38.656 154.496 38.56C154.8 38.416 155.056 38.368 155.376 38.368C155.584 38.368 155.904 38.384 156.128 38.544C156.272 38.64 156.416 38.832 156.416 39.12C156.416 39.456 156.256 39.616 156.128 39.712C155.936 39.84 155.584 39.888 155.36 39.888H154.768V41.168H155.472C155.856 41.168 156.32 41.168 156.592 41.456C156.72 41.584 156.8 41.776 156.8 42C156.8 42.224 156.704 42.432 156.56 42.592C156.272 42.88 155.76 42.928 155.488 42.928C155.12 42.928 154.752 42.848 154.48 42.672C154.224 42.512 154.016 42.24 153.888 41.968L152.64 42.608C152.896 43.2 153.312 43.584 153.696 43.808C154.304 44.16 154.976 44.208 155.456 44.208C156.544 44.208 157.296 43.968 157.824 43.44C158.208 43.056 158.4 42.576 158.4 41.952C158.4 41.616 158.32 41.184 157.968 40.832C157.728 40.592 157.36 40.416 156.992 40.336C157.184 40.256 157.424 40.128 157.632 39.856C157.872 39.552 157.92 39.264 157.92 38.928C157.92 38.352 157.728 37.92 157.216 37.552C156.672 37.168 156.08 37.088 155.504 37.088C155.072 37.088 154.48 37.136 153.92 37.376C153.456 37.584 153.12 37.856 152.896 38.128L153.904 39.008ZM164.967 38.048C164.327 37.216 163.463 37.088 162.967 37.088C161.191 37.088 159.687 38.432 159.687 40.624C159.687 42.48 160.871 44.208 162.951 44.208C163.431 44.208 164.279 44.096 164.967 43.296V44H166.535V37.264H164.967V38.048ZM163.159 38.496C164.151 38.496 165.063 39.2 165.063 40.672C165.063 42.08 164.151 42.8 163.159 42.8C162.023 42.8 161.287 41.824 161.287 40.656C161.287 39.456 162.023 38.496 163.159 38.496ZM168.523 44H177.387V45.92H178.827V42.56H177.707V37.264H176.139V42.56H173.899V37.264H172.331V42.56H170.091V37.264H168.523V44ZM179.945 37.264V44.512L184.553 40.08V44H186.121V36.656L181.513 41.088V37.264H179.945ZM192.741 38.704V37.264H187.237V38.704H189.205V44H190.773V38.704H192.741ZM193.867 44H195.435V41.2H198.219V44H199.787V37.264H198.219V39.76H195.435V37.264H193.867V44ZM205.021 37.088C202.989 37.088 201.421 38.56 201.421 40.64C201.421 42.704 202.989 44.208 205.021 44.208C207.053 44.208 208.621 42.704 208.621 40.64C208.621 38.56 207.053 37.088 205.021 37.088ZM205.021 42.8C203.789 42.8 203.021 41.952 203.021 40.656C203.021 39.12 204.029 38.496 205.021 38.496C206.013 38.496 207.021 39.12 207.021 40.656C207.021 41.952 206.253 42.8 205.021 42.8ZM214.978 41.728C214.834 41.984 214.626 42.256 214.354 42.464C214.034 42.704 213.714 42.8 213.282 42.8C212.898 42.8 212.45 42.736 212.082 42.368C211.746 42.032 211.538 41.488 211.506 41.008H216.338V40.816C216.338 40.112 216.258 38.864 215.394 37.968C214.994 37.552 214.306 37.088 213.234 37.088C212.274 37.088 211.538 37.44 210.978 38C210.274 38.72 209.906 39.728 209.906 40.768C209.906 41.776 210.258 42.704 210.898 43.344C211.538 43.984 212.274 44.208 213.17 44.208C213.89 44.208 214.61 44.048 215.154 43.696C215.586 43.424 216.002 42.976 216.29 42.464L214.978 41.728ZM211.618 39.728C211.698 39.392 211.874 39.072 212.098 38.864C212.306 38.656 212.658 38.432 213.202 38.432C213.714 38.432 214.05 38.624 214.258 38.816C214.498 39.04 214.674 39.36 214.738 39.728H211.618ZM221.711 37.264V44H223.279V38.704H225.999V44H227.567V37.264H221.711ZM232.803 37.088C230.771 37.088 229.203 38.56 229.203 40.64C229.203 42.704 230.771 44.208 232.803 44.208C234.835 44.208 236.403 42.704 236.403 40.64C236.403 38.56 234.835 37.088 232.803 37.088ZM232.803 42.8C231.571 42.8 230.803 41.952 230.803 40.656C230.803 39.12 231.811 38.496 232.803 38.496C233.795 38.496 234.803 39.12 234.803 40.656C234.803 41.952 234.035 42.8 232.803 42.8ZM238.039 37.264V44H239.607V41.488L239.863 41.232L242.103 44H244.087L240.983 40.208L243.927 37.264H241.847L239.607 39.664V37.264H238.039ZM246.685 43.216C247.389 44.08 248.333 44.208 248.701 44.208C250.301 44.208 251.965 42.864 251.965 40.592C251.965 38.448 250.461 37.088 248.685 37.088C248.013 37.088 247.261 37.312 246.685 38V37.264H245.117V47.664H246.685V43.216ZM248.493 38.496C249.629 38.496 250.365 39.456 250.365 40.656C250.365 41.824 249.629 42.8 248.493 42.8C247.501 42.8 246.589 42.08 246.589 40.672C246.589 39.2 247.501 38.496 248.493 38.496ZM253.601 44H256.049C256.721 44 257.425 44 258.017 43.424C258.321 43.12 258.625 42.592 258.625 41.808C258.625 41.408 258.545 40.832 258.097 40.336C257.489 39.664 256.721 39.648 256.065 39.648H255.169V37.264H253.601V44ZM255.169 42.656V40.992H255.905C256.145 40.992 256.465 40.992 256.721 41.152C256.913 41.28 257.057 41.488 257.057 41.824C257.057 42.24 256.817 42.432 256.705 42.512C256.497 42.64 256.193 42.656 255.889 42.656H255.169ZM259.329 44H260.897V37.264H259.329V44ZM267.523 38.704V37.264H262.019V38.704H263.987V44H265.555V38.704H267.523ZM268.648 37.264V44.512L273.256 40.08V44H274.824V36.656L270.216 41.088V37.264H268.648ZM281.525 41.728C281.381 41.984 281.173 42.256 280.901 42.464C280.581 42.704 280.261 42.8 279.829 42.8C279.445 42.8 278.997 42.736 278.629 42.368C278.293 42.032 278.085 41.488 278.053 41.008H282.885V40.816C282.885 40.112 282.805 38.864 281.941 37.968C281.541 37.552 280.853 37.088 279.781 37.088C278.821 37.088 278.085 37.44 277.525 38C276.821 38.72 276.453 39.728 276.453 40.768C276.453 41.776 276.805 42.704 277.445 43.344C278.085 43.984 278.821 44.208 279.717 44.208C280.437 44.208 281.157 44.048 281.701 43.696C282.133 43.424 282.549 42.976 282.837 42.464L281.525 41.728ZM278.164 39.728C278.245 39.392 278.421 39.072 278.645 38.864C278.853 38.656 279.205 38.432 279.749 38.432C280.261 38.432 280.597 38.624 280.805 38.816C281.045 39.04 281.221 39.36 281.285 39.728H278.164ZM156.224 61.272C155.824 60.328 155.456 59.192 155.248 58.296C155.072 57.496 154.88 56.264 154.88 54.52C154.88 53.176 155.008 51.768 155.264 50.616C155.456 49.736 155.808 48.664 156.224 47.72L154.784 47.16C154.288 48.2 153.984 49.128 153.728 50.28C153.376 51.848 153.28 53.032 153.28 54.52C153.28 55.96 153.36 57.096 153.696 58.6C153.952 59.736 154.272 60.744 154.784 61.832L156.224 61.272ZM163.508 48.136C160.308 48.136 157.956 50.536 157.956 53.672C157.956 56.808 160.308 59.208 163.508 59.208C166.708 59.208 169.06 56.808 169.06 53.672C169.06 50.536 166.708 48.136 163.508 48.136ZM163.508 57.704C161.22 57.704 159.588 56.04 159.588 53.672C159.588 51.304 161.22 49.64 163.508 49.64C165.796 49.64 167.428 51.304 167.428 53.672C167.428 56.04 165.796 57.704 163.508 57.704ZM171.108 59H178.628V61.4H180.164V57.464H178.788V48.328H177.156V57.464H172.74V48.328H171.108V59ZM185.117 52.264V59.512L189.725 55.08V59H191.293V51.656L186.685 56.088V52.264H185.117ZM198.809 52.264H193.753V56.376C193.753 56.632 193.721 57 193.513 57.256C193.305 57.496 192.873 57.672 192.409 57.56V59C193.129 59.112 194.009 58.984 194.617 58.312C195.177 57.704 195.257 56.952 195.257 56.376V53.704H197.241V59H198.809V52.264ZM200.789 52.264V59.512L205.397 55.08V59H206.965V51.656L202.357 56.088V52.264H200.789ZM212.968 48.328V59H214.6V49.864H219.176V59H220.808V48.328H212.968ZM222.862 50.824C223.438 50.312 224.446 49.64 225.918 49.64C227.262 49.64 228.078 50.152 228.574 50.664C229.086 51.192 229.454 51.944 229.55 52.824H224.302V54.36H229.582C229.486 55.464 228.974 56.264 228.494 56.744C227.822 57.416 226.958 57.704 225.902 57.704C225.15 57.704 223.886 57.512 222.862 56.472V58.408C223.534 58.808 224.51 59.208 225.902 59.208C227.31 59.208 228.606 58.84 229.694 57.752C230.734 56.712 231.278 55.368 231.278 53.656C231.278 52.488 231.022 50.84 229.694 49.528C228.606 48.456 227.342 48.136 225.95 48.136C224.574 48.136 223.614 48.472 222.862 48.904V50.824ZM234.447 61.832C234.959 60.744 235.279 59.736 235.535 58.6C235.871 57.096 235.951 55.96 235.951 54.52C235.951 53.032 235.855 51.848 235.503 50.28C235.247 49.128 234.943 48.2 234.447 47.16L233.007 47.72C233.423 48.664 233.775 49.736 233.967 50.616C234.223 51.768 234.351 53.176 234.351 54.52C234.351 56.264 234.159 57.496 233.983 58.296C233.775 59.192 233.407 60.328 233.007 61.272L234.447 61.832Z" fill="#027DE2"/>
</svg>
