<svg width="478" height="398" viewBox="0 0 478 398" fill="none" xmlns="http://www.w3.org/2000/svg">
<path d="M302.992 330.264L302.992 337L304.56 337L304.56 331.704L307.28 331.704L307.28 337L308.848 337L308.848 330.264L302.992 330.264ZM314.084 330.088C312.052 330.088 310.484 331.56 310.484 333.64C310.484 335.704 312.052 337.208 314.084 337.208C316.116 337.208 317.684 335.704 317.684 333.64C317.684 331.56 316.116 330.088 314.084 330.088ZM314.084 335.8C312.852 335.8 312.084 334.952 312.084 333.656C312.084 332.12 313.092 331.496 314.084 331.496C315.076 331.496 316.084 332.12 316.084 333.656C316.084 334.952 315.316 335.8 314.084 335.8ZM324.856 330.264L319.8 330.264L319.8 334.376C319.8 334.632 319.768 335 319.56 335.256C319.352 335.496 318.92 335.672 318.456 335.56L318.456 337C319.176 337.112 320.056 336.984 320.664 336.312C321.224 335.704 321.304 334.952 321.304 334.376L321.304 331.704L323.288 331.704L323.288 337L324.856 337L324.856 330.264ZM326.836 330.264L326.836 337.512L331.444 333.08L331.444 337L333.012 337L333.012 329.656L328.404 334.088L328.404 330.264L326.836 330.264ZM334.64 331.928C335.328 331.592 335.904 331.496 336.48 331.496C336.88 331.496 337.392 331.56 337.776 331.832C338.064 332.024 338.352 332.392 338.448 332.904L335.376 332.904L335.376 334.216L338.496 334.216C338.432 334.616 338.256 335 338 335.256C337.776 335.48 337.328 335.8 336.48 335.8C336.048 335.8 335.376 335.752 334.64 335.336L334.64 336.824C335.376 337.112 336.128 337.208 336.704 337.208C337.792 337.208 338.576 336.872 339.216 336.2C339.92 335.48 340.208 334.6 340.208 333.624C340.208 332.376 339.712 331.56 339.232 331.08C338.752 330.6 337.888 330.088 336.544 330.088C335.968 330.088 335.296 330.184 334.64 330.44L334.64 331.928ZM346.476 331.704L346.476 330.264L340.972 330.264L340.972 331.704L342.94 331.704L342.94 337L344.508 337L344.508 331.704L346.476 331.704ZM347.601 330.264L347.601 337.512L352.209 333.08L352.209 337L353.777 337L353.777 329.656L349.169 334.088L349.169 330.264L347.601 330.264ZM361.294 330.264L356.238 330.264L356.238 334.376C356.238 334.632 356.206 335 355.998 335.256C355.79 335.496 355.358 335.672 354.894 335.56L354.894 337C355.614 337.112 356.494 336.984 357.102 336.312C357.662 335.704 357.742 334.952 357.742 334.376L357.742 331.704L359.726 331.704L359.726 337L361.294 337L361.294 330.264ZM367.993 334.728C367.849 334.984 367.641 335.256 367.369 335.464C367.049 335.704 366.729 335.8 366.297 335.8C365.913 335.8 365.465 335.736 365.097 335.368C364.761 335.032 364.553 334.488 364.521 334.008L369.353 334.008L369.353 333.816C369.353 333.112 369.273 331.864 368.409 330.968C368.009 330.552 367.321 330.088 366.249 330.088C365.289 330.088 364.553 330.44 363.993 331C363.289 331.72 362.921 332.728 362.921 333.768C362.921 334.776 363.273 335.704 363.913 336.344C364.553 336.984 365.289 337.208 366.185 337.208C366.905 337.208 367.625 337.048 368.169 336.696C368.601 336.424 369.017 335.976 369.305 335.464L367.993 334.728ZM364.633 332.728C364.713 332.392 364.889 332.072 365.113 331.864C365.321 331.656 365.673 331.432 366.217 331.432C366.729 331.432 367.065 331.624 367.273 331.816C367.513 332.04 367.689 332.36 367.753 332.728L364.633 332.728ZM370.992 337L372.56 337L372.56 334.2L375.344 334.2L375.344 337L376.912 337L376.912 330.264L375.344 330.264L375.344 332.76L372.56 332.76L372.56 330.264L370.992 330.264L370.992 337ZM382.146 330.088C380.114 330.088 378.546 331.56 378.546 333.64C378.546 335.704 380.114 337.208 382.146 337.208C384.178 337.208 385.746 335.704 385.746 333.64C385.746 331.56 384.178 330.088 382.146 330.088ZM382.146 335.8C380.914 335.8 380.146 334.952 380.146 333.656C380.146 332.12 381.154 331.496 382.146 331.496C383.138 331.496 384.146 332.12 384.146 333.656C384.146 334.952 383.378 335.8 382.146 335.8ZM387.383 330.264L387.383 337L390.535 337C390.839 337 391.527 336.968 392.087 336.552C392.423 336.296 392.823 335.832 392.823 335.016C392.823 334.408 392.599 333.992 392.295 333.72C392.039 333.496 391.703 333.336 391.383 333.272C391.927 333 392.183 332.504 392.183 331.96C392.183 331.256 391.799 330.856 391.559 330.664C391.047 330.28 390.423 330.264 390.023 330.264L387.383 330.264ZM388.951 332.888L388.951 331.544L389.719 331.544C389.959 331.544 390.199 331.528 390.407 331.672C390.567 331.784 390.679 331.96 390.679 332.2C390.679 332.36 390.631 332.584 390.375 332.744C390.327 332.776 390.119 332.888 389.751 332.888L388.951 332.888ZM388.951 335.72L388.951 334.168L390.167 334.168C390.391 334.168 390.711 334.184 390.951 334.344C391.111 334.44 391.255 334.632 391.255 334.936C391.255 335.24 391.079 335.432 390.935 335.528C390.695 335.688 390.375 335.72 390.119 335.72L388.951 335.72ZM397.709 330.088C395.677 330.088 394.109 331.56 394.109 333.64C394.109 335.704 395.677 337.208 397.709 337.208C399.741 337.208 401.309 335.704 401.309 333.64C401.309 331.56 399.741 330.088 397.709 330.088ZM397.709 335.8C396.477 335.8 395.709 334.952 395.709 333.656C395.709 332.12 396.717 331.496 397.709 331.496C398.701 331.496 399.709 332.12 399.709 333.656C399.709 334.952 398.941 335.8 397.709 335.8ZM407.665 334.728C407.521 334.984 407.313 335.256 407.041 335.464C406.721 335.704 406.401 335.8 405.969 335.8C405.585 335.8 405.137 335.736 404.769 335.368C404.433 335.032 404.225 334.488 404.193 334.008L409.025 334.008L409.025 333.816C409.025 333.112 408.945 331.864 408.081 330.968C407.681 330.552 406.993 330.088 405.921 330.088C404.961 330.088 404.225 330.44 403.665 331C402.961 331.72 402.593 332.728 402.593 333.768C402.593 334.776 402.945 335.704 403.585 336.344C404.225 336.984 404.961 337.208 405.857 337.208C406.577 337.208 407.297 337.048 407.841 336.696C408.273 336.424 408.689 335.976 408.977 335.464L407.665 334.728ZM404.305 332.728C404.385 332.392 404.561 332.072 404.785 331.864C404.993 331.656 405.345 331.432 405.889 331.432C406.401 331.432 406.737 331.624 406.945 331.816C407.185 332.04 407.361 332.36 407.425 332.728L404.305 332.728ZM302.992 345.264L302.992 352L304.56 352L304.56 346.704L307.28 346.704L307.28 352L308.848 352L308.848 345.264L302.992 345.264ZM314.084 345.088C312.052 345.088 310.484 346.56 310.484 348.64C310.484 350.704 312.052 352.208 314.084 352.208C316.116 352.208 317.684 350.704 317.684 348.64C317.684 346.56 316.116 345.088 314.084 345.088ZM314.084 350.8C312.852 350.8 312.084 349.952 312.084 348.656C312.084 347.12 313.092 346.496 314.084 346.496C315.076 346.496 316.084 347.12 316.084 348.656C316.084 349.952 315.316 350.8 314.084 350.8ZM319.32 345.264L319.32 352L320.888 352L320.888 349.488L321.144 349.232L323.384 352L325.368 352L322.264 348.208L325.208 345.264L323.128 345.264L320.888 347.664L320.888 345.264L319.32 345.264ZM327.966 351.216C328.67 352.08 329.614 352.208 329.982 352.208C331.582 352.208 333.246 350.864 333.246 348.592C333.246 346.448 331.742 345.088 329.966 345.088C329.294 345.088 328.542 345.312 327.966 346L327.966 345.264L326.398 345.264L326.398 355.664L327.966 355.664L327.966 351.216ZM329.774 346.496C330.91 346.496 331.646 347.456 331.646 348.656C331.646 349.824 330.91 350.8 329.774 350.8C328.782 350.8 327.87 350.08 327.87 348.672C327.87 347.2 328.782 346.496 329.774 346.496ZM334.883 352L337.331 352C338.003 352 338.707 352 339.299 351.424C339.603 351.12 339.907 350.592 339.907 349.808C339.907 349.408 339.827 348.832 339.379 348.336C338.771 347.664 338.003 347.648 337.347 347.648L336.451 347.648L336.451 345.264L334.883 345.264L334.883 352ZM336.451 350.656L336.451 348.992L337.187 348.992C337.427 348.992 337.747 348.992 338.003 349.152C338.195 349.28 338.339 349.488 338.339 349.824C338.339 350.24 338.099 350.432 337.987 350.512C337.779 350.64 337.475 350.656 337.171 350.656L336.451 350.656ZM340.611 352L342.179 352L342.179 345.264L340.611 345.264L340.611 352ZM348.804 346.704L348.804 345.264L343.3 345.264L343.3 346.704L345.268 346.704L345.268 352L346.836 352L346.836 346.704L348.804 346.704ZM349.929 345.264L349.929 352.512L354.538 348.08L354.538 352L356.105 352L356.106 344.656L351.497 349.088L351.498 345.264L349.929 345.264ZM362.806 349.728C362.662 349.984 362.454 350.256 362.182 350.464C361.862 350.704 361.542 350.8 361.11 350.8C360.726 350.8 360.278 350.736 359.91 350.368C359.574 350.032 359.366 349.488 359.334 349.008L364.166 349.008L364.166 348.816C364.166 348.112 364.086 346.864 363.222 345.968C362.822 345.552 362.134 345.088 361.062 345.088C360.102 345.088 359.366 345.44 358.806 346C358.102 346.72 357.734 347.728 357.734 348.768C357.734 349.776 358.086 350.704 358.726 351.344C359.366 351.984 360.102 352.208 360.998 352.208C361.718 352.208 362.438 352.048 362.982 351.696C363.414 351.424 363.83 350.976 364.118 350.464L362.806 349.728ZM359.446 347.728C359.526 347.392 359.702 347.072 359.926 346.864C360.134 346.656 360.486 346.432 361.03 346.432C361.542 346.432 361.878 346.624 362.086 346.816C362.326 347.04 362.502 347.36 362.566 347.728L359.446 347.728ZM368.771 352L370.371 352L371.043 348.624L373.187 352.512L375.331 348.624L376.003 352L377.603 352L375.971 344.656L373.187 349.792L370.403 344.656L368.771 352ZM383.748 346.048C383.108 345.216 382.244 345.088 381.748 345.088C379.972 345.088 378.468 346.432 378.468 348.624C378.468 350.48 379.652 352.208 381.732 352.208C382.212 352.208 383.06 352.096 383.748 351.296L383.748 352L385.316 352L385.316 345.264L383.748 345.264L383.748 346.048ZM381.94 346.496C382.932 346.496 383.844 347.2 383.844 348.672C383.844 350.08 382.932 350.8 381.94 350.8C380.804 350.8 380.068 349.824 380.068 348.656C380.068 347.456 380.804 346.496 381.94 346.496ZM388.872 351.216C389.576 352.08 390.52 352.208 390.888 352.208C392.488 352.208 394.152 350.864 394.152 348.592C394.152 346.448 392.649 345.088 390.873 345.088C390.201 345.088 389.448 345.312 388.873 346L388.873 345.264L387.304 345.264L387.304 355.664L388.872 355.664L388.872 351.216ZM390.68 346.496C391.817 346.496 392.553 347.456 392.553 348.656C392.553 349.824 391.816 350.8 390.68 350.8C389.688 350.8 388.777 350.08 388.777 348.672C388.777 347.2 389.688 346.496 390.68 346.496ZM395.789 345.264L395.789 352L397.357 352L397.357 349.488L397.613 349.232L399.853 352L401.837 352L398.733 348.208L401.677 345.264L399.597 345.264L397.357 347.664L397.357 345.264L395.789 345.264ZM402.867 345.264L402.867 352.512L407.475 348.08L407.475 352L409.043 352L409.043 344.656L404.435 349.088L404.435 345.264L402.867 345.264ZM303.28 356.328L303.28 367L304.912 367L304.912 357.864L309.488 357.864L309.488 367L311.12 367L311.12 356.328L303.28 356.328ZM313.174 358.824C313.75 358.312 314.758 357.64 316.23 357.64C317.574 357.64 318.39 358.152 318.886 358.664C319.398 359.192 319.766 359.944 319.862 360.824L314.614 360.824L314.614 362.36L319.894 362.36C319.798 363.464 319.286 364.264 318.806 364.744C318.134 365.416 317.27 365.704 316.214 365.704C315.462 365.704 314.198 365.512 313.174 364.472L313.174 366.408C313.846 366.808 314.822 367.208 316.214 367.208C317.622 367.208 318.918 366.84 320.006 365.752C321.046 364.712 321.59 363.368 321.59 361.656C321.59 360.488 321.334 358.84 320.006 357.528C318.918 356.456 317.654 356.136 316.262 356.136C314.886 356.136 313.926 356.472 313.174 356.904L313.174 358.824ZM326.359 367L327.991 367L327.991 356.328L325.399 356.328L324.503 357.832L326.359 357.832L326.359 367ZM334.794 367.176C335.754 367.176 336.538 366.792 337.21 366.024C338.33 364.744 338.57 363.064 338.57 361.672C338.57 360.296 338.33 358.584 337.21 357.304C336.538 356.536 335.738 356.152 334.794 356.152C333.85 356.152 333.05 356.536 332.378 357.304C331.258 358.584 331.018 360.296 331.018 361.672C331.018 363.064 331.258 364.744 332.378 366.024C333.05 366.792 333.834 367.176 334.794 367.176ZM334.794 357.592C335.21 357.592 335.77 357.768 336.234 358.472C336.826 359.352 336.97 360.728 336.97 361.656C336.97 362.6 336.826 363.96 336.234 364.856C335.77 365.56 335.21 365.736 334.794 365.736C334.378 365.736 333.818 365.56 333.354 364.856C332.762 363.96 332.618 362.6 332.618 361.656C332.618 360.728 332.762 359.352 333.354 358.472C333.818 357.768 334.378 357.592 334.794 357.592ZM343.888 367.176C344.848 367.176 345.632 366.792 346.304 366.024C347.424 364.744 347.664 363.064 347.664 361.672C347.664 360.296 347.424 358.584 346.304 357.304C345.632 356.536 344.832 356.152 343.888 356.152C342.944 356.152 342.144 356.536 341.472 357.304C340.352 358.584 340.112 360.296 340.112 361.672C340.112 363.064 340.352 364.744 341.472 366.024C342.144 366.792 342.928 367.176 343.888 367.176ZM343.888 357.592C344.304 357.592 344.864 357.768 345.328 358.472C345.92 359.352 346.064 360.728 346.064 361.656C346.064 362.6 345.92 363.96 345.328 364.856C344.864 365.56 344.304 365.736 343.888 365.736C343.472 365.736 342.912 365.56 342.448 364.856C341.856 363.96 341.712 362.6 341.712 361.656C341.712 360.728 341.856 359.352 342.448 358.472C342.912 357.768 343.472 357.592 343.888 357.592Z" fill="#027DE2"/>
<path d="M172.24 389.088C170.208 389.088 168.64 390.56 168.64 392.64C168.64 394.704 170.208 396.208 172.24 396.208C174.272 396.208 175.84 394.704 175.84 392.64C175.84 390.56 174.272 389.088 172.24 389.088ZM172.24 394.8C171.008 394.8 170.24 393.952 170.24 392.656C170.24 391.12 171.248 390.496 172.24 390.496C173.232 390.496 174.24 391.12 174.24 392.656C174.24 393.952 173.472 394.8 172.24 394.8ZM182.116 390.704L182.116 389.264L176.612 389.264L176.612 390.704L178.58 390.704L178.58 396L180.148 396L180.148 390.704L182.116 390.704ZM189.984 396L191.616 396L191.616 385.328L189.024 385.328L188.128 386.832L189.984 386.832L189.984 396ZM195.687 396L197.32 396L197.32 385.328L194.728 385.328L193.832 386.832L195.687 386.832L195.687 396ZM204.122 396.176C205.082 396.176 205.866 395.792 206.538 395.024C207.658 393.744 207.898 392.064 207.898 390.672C207.898 389.296 207.658 387.584 206.538 386.304C205.866 385.536 205.066 385.152 204.122 385.152C203.178 385.152 202.378 385.536 201.706 386.304C200.586 387.584 200.346 389.296 200.346 390.672C200.346 392.064 200.586 393.744 201.706 395.024C202.378 395.792 203.162 396.176 204.122 396.176ZM204.122 386.592C204.538 386.592 205.098 386.768 205.562 387.472C206.154 388.352 206.298 389.728 206.298 390.656C206.298 391.6 206.154 392.96 205.562 393.856C205.098 394.56 204.538 394.736 204.122 394.736C203.706 394.736 203.146 394.56 202.682 393.856C202.09 392.96 201.946 391.6 201.946 390.656C201.946 389.728 202.09 388.352 202.682 387.472C203.146 386.768 203.706 386.592 204.122 386.592ZM213.974 389.264L213.974 391.904C213.974 392.72 213.894 393.264 213.702 393.68C213.494 394.096 213.078 394.528 212.47 394.56L212.47 397.92L213.91 397.92L213.91 396L218.614 396L218.614 397.92L220.054 397.92L220.054 394.56L219.03 394.56L219.03 389.264L213.974 389.264ZM217.462 394.56L214.694 394.56C215.11 394.24 215.478 393.664 215.478 392.496L215.478 390.704L217.462 390.704L217.462 394.56ZM224.428 389.088C222.396 389.088 220.827 390.56 220.827 392.64C220.827 394.704 222.396 396.208 224.428 396.208C226.46 396.208 228.028 394.704 228.028 392.64C228.028 390.56 226.46 389.088 224.428 389.088ZM224.428 394.8C223.196 394.8 222.427 393.952 222.427 392.656C222.427 391.12 223.436 390.496 224.428 390.496C225.42 390.496 226.428 391.12 226.428 392.656C226.428 393.952 225.66 394.8 224.428 394.8ZM240.038 385.328L235.622 385.328L234.038 390.72C234.342 390.512 234.646 390.368 234.982 390.24C235.414 390.08 235.766 390.016 236.23 390.016C236.742 390.016 237.446 390.112 237.974 390.608C238.31 390.928 238.614 391.456 238.614 392.336C238.614 393.248 238.246 393.824 237.926 394.144C237.654 394.4 237.158 394.736 236.294 394.736C235.75 394.736 235.254 394.608 234.902 394.368C234.406 394.048 234.118 393.52 234.086 393.44L232.854 394.464C233.35 395.232 233.958 395.6 234.118 395.696C234.806 396.096 235.542 396.176 236.166 396.176C237.254 396.176 238.278 395.92 239.126 395.088C239.846 394.368 240.214 393.424 240.214 392.256C240.214 390.864 239.686 390.016 239.174 389.52C238.518 388.88 237.606 388.576 236.71 388.576C236.55 388.576 236.374 388.592 236.214 388.608L236.742 386.832L240.038 386.832L240.038 385.328ZM246.044 396.176C247.004 396.176 247.788 395.792 248.46 395.024C249.58 393.744 249.82 392.064 249.82 390.672C249.82 389.296 249.58 387.584 248.46 386.304C247.788 385.536 246.988 385.152 246.044 385.152C245.1 385.152 244.3 385.536 243.628 386.304C242.508 387.584 242.268 389.296 242.268 390.672C242.268 392.064 242.508 393.744 243.628 395.024C244.3 395.792 245.084 396.176 246.044 396.176ZM246.044 386.592C246.46 386.592 247.02 386.768 247.484 387.472C248.076 388.352 248.22 389.728 248.22 390.656C248.22 391.6 248.076 392.96 247.484 393.856C247.02 394.56 246.46 394.736 246.044 394.736C245.628 394.736 245.068 394.56 244.604 393.856C244.012 392.96 243.868 391.6 243.868 390.656C243.868 389.728 244.012 388.352 244.604 387.472C245.068 386.768 245.628 386.592 246.044 386.592ZM255.138 396.176C256.098 396.176 256.882 395.792 257.554 395.024C258.674 393.744 258.914 392.064 258.914 390.672C258.914 389.296 258.674 387.584 257.554 386.304C256.882 385.536 256.082 385.152 255.138 385.152C254.194 385.152 253.394 385.536 252.722 386.304C251.602 387.584 251.362 389.296 251.362 390.672C251.362 392.064 251.602 393.744 252.722 395.024C253.394 395.792 254.178 396.176 255.138 396.176ZM255.138 386.592C255.554 386.592 256.114 386.768 256.578 387.472C257.17 388.352 257.314 389.728 257.314 390.656C257.314 391.6 257.17 392.96 256.578 393.856C256.114 394.56 255.554 394.736 255.138 394.736C254.722 394.736 254.162 394.56 253.698 393.856C253.106 392.96 252.962 391.6 252.962 390.656C252.962 389.728 253.106 388.352 253.698 387.472C254.162 386.768 254.722 386.592 255.138 386.592ZM263.646 396L265.246 396L265.918 392.624L268.062 396.512L270.206 392.624L270.878 396L272.478 396L270.846 388.656L268.062 393.792L265.278 388.656L263.646 396ZM272.927 396L274.527 396L275.199 392.624L277.343 396.512L279.487 392.624L280.159 396L281.759 396L280.127 388.656L277.343 393.792L274.559 388.656L272.927 396Z" fill="#027DE2"/>
<path d="M167.356 284.8L453.488 113.188" stroke="#1561AB"/>
<path d="M135.643 337.868C109.334 354.712 71.2406 342.741 50.6533 310.585C30.066 278.428 35.1393 238.822 61.4489 221.978C87.7585 205.134 125.852 217.104 146.439 249.261C167.026 281.418 161.953 321.024 135.643 337.868Z" stroke="#1561AB" stroke-width="2"/>
<path d="M140.928 345.45C111.283 364.429 68.1413 351.079 44.7539 314.549C21.3665 278.018 27.3004 233.25 56.9451 214.271C86.5899 195.292 129.732 208.641 153.119 245.172C176.506 281.702 170.572 326.471 140.928 345.45Z" stroke="#1561AB" stroke-width="4"/>
<path d="M151.185 242.757L438.905 73.6729" stroke="#1561AB" stroke-width="11"/>
<path d="M133.721 349.482C133.721 349.482 409.703 176.061 429.315 163.505C455.736 146.59 460.642 107.086 440.273 75.2715C419.905 43.4565 381.975 31.3776 355.554 48.2924C335.633 61.0461 65.3886 209.155 65.3886 209.155" stroke="#1561AB" stroke-width="4" stroke-linecap="round"/>
<path d="M159.594 253.106L444.841 84.2861" stroke="#1561AB" stroke-width="5"/>
<path d="M248.667 259.694C251.218 258.221 252.092 254.959 250.619 252.408C249.146 249.857 245.884 248.983 243.333 250.456C240.783 251.929 239.909 255.191 241.381 257.741C242.854 260.292 246.116 261.166 248.667 259.694ZM296.961 321.058L246.799 254.473L245.201 255.676L295.364 322.261L296.961 321.058Z" fill="#027DE2"/>
<path d="M168.459 380.227L141 343.778" stroke="#027DE2" stroke-width="2"/>
<path d="M144.615 349.072C147.165 347.599 148.039 344.337 146.567 341.786C145.094 339.235 141.832 338.361 139.281 339.834C136.73 341.307 135.856 344.569 137.329 347.12C138.802 349.671 142.064 350.545 144.615 349.072ZM51.6668 225.694C54.2177 224.221 55.0917 220.959 53.619 218.408C52.1462 215.857 48.8844 214.983 46.3335 216.456C43.7826 217.929 42.9086 221.191 44.3814 223.742C45.8541 226.292 49.1159 227.166 51.6668 225.694ZM142.747 343.851L141.524 342.228L139.926 343.431L141.149 345.055L142.747 343.851ZM139.078 338.981L136.632 335.734L135.034 336.938L137.48 340.184L139.078 338.981ZM134.186 332.487L131.74 329.241L130.142 330.444L132.588 333.691L134.186 332.487ZM129.294 325.994L126.848 322.747L125.25 323.951L127.696 327.197L129.294 325.994ZM124.402 319.5L121.956 316.254L120.358 317.457L122.804 320.704L124.402 319.5ZM119.51 313.007L117.064 309.76L115.466 310.963L117.912 314.21L119.51 313.007ZM114.618 306.513L112.172 303.266L110.574 304.47L113.02 307.717L114.618 306.513ZM109.726 300.02L107.28 296.773L105.682 297.976L108.128 301.223L109.726 300.02ZM104.834 293.526L102.388 290.279L100.79 291.483L103.236 294.729L104.834 293.526ZM99.9417 287.032L97.4957 283.786L95.8983 284.989L98.3443 288.236L99.9417 287.032ZM95.0497 280.539L92.6037 277.292L91.0063 278.495L93.4523 281.742L95.0497 280.539ZM90.1577 274.045L87.7117 270.798L86.1143 272.002L88.5603 275.249L90.1577 274.045ZM85.2658 267.552L82.8198 264.305L81.2223 265.508L83.6683 268.755L85.2658 267.552ZM80.3738 261.058L77.9278 257.811L76.3304 259.015L78.7763 262.261L80.3738 261.058ZM75.4818 254.564L73.0358 251.318L71.4384 252.521L73.8844 255.768L75.4818 254.564ZM70.5898 248.071L68.1438 244.824L66.5464 246.027L68.9924 249.274L70.5898 248.071ZM65.6978 241.577L63.2518 238.33L61.6544 239.534L64.1004 242.781L65.6978 241.577ZM60.8058 235.084L58.3598 231.837L56.7624 233.04L59.2084 236.287L60.8058 235.084ZM55.9138 228.59L53.4679 225.343L51.8704 226.547L54.3164 229.794L55.9138 228.59ZM51.0219 222.097L49.7989 220.473L48.2015 221.677L49.4245 223.3L51.0219 222.097Z" fill="#027DE2"/>
</svg>
