<svg width="434" height="324" viewBox="0 0 434 324" fill="none" xmlns="http://www.w3.org/2000/svg">
<path d="M120.288 296.347C148.54 281.423 156.083 240.247 137.135 204.379C118.187 168.512 79.9239 151.534 51.6718 166.459C23.4196 181.383 15.877 222.559 34.8249 258.427C53.7728 294.295 92.036 311.272 120.288 296.347Z" stroke="#1561AB" stroke-width="5" stroke-miterlimit="10"/>
<path d="M388.98 122.459L388.046 120.691L387.966 120.733L387.889 120.783L388.98 122.459ZM345.158 43.5083L345.927 45.3546L346.011 45.3195L346.092 45.2767L345.158 43.5083ZM53.7063 162.697C52.6866 163.121 52.2042 164.292 52.6288 165.312C53.0533 166.331 54.2242 166.814 55.2439 166.389L53.7063 162.697ZM397.452 67.492C408.673 88.7336 403.872 112.33 388.046 120.691L389.915 124.228C408.434 114.444 412.802 87.9854 400.989 65.6236L397.452 67.492ZM346.092 45.2767C354.024 41.0866 364.013 41.2992 373.535 45.2994C383.043 49.2933 391.912 57.0046 397.452 67.492L400.989 65.6236C395.012 54.3092 385.436 45.9599 375.085 41.6116C364.748 37.2694 353.465 36.8582 344.224 41.7399L346.092 45.2767ZM55.2439 166.389L345.927 45.3546L344.389 41.6619L53.7063 162.697L55.2439 166.389ZM387.889 120.783L124.229 292.397L126.411 295.75L390.071 124.135L387.889 120.783Z" fill="#1561AB"/>
<path d="M142.767 207.896L402.356 73.079" stroke="#1561AB" stroke-width="12" stroke-miterlimit="10"/>
<path d="M136.951 196.265L397.598 63.5628" stroke="#1561AB" stroke-width="6" stroke-miterlimit="10"/>
<path d="M135.735 282.563C135.735 282.563 140.519 281.189 119.519 292.283C92.8106 306.392 56.6306 290.316 38.7022 256.378C20.7738 222.44 28.304 184.283 54.5359 169.272C63.5112 164.098 69.5397 162.211 69.5397 162.211" stroke="#1561AB" stroke-miterlimit="10"/>
<path d="M56.9972 163.501C85.2132 148.596 121.366 166.705 140.307 202.56C159.247 238.415 153.889 278.597 125.673 293.503" stroke="#1561AB" stroke-miterlimit="10"/>
</svg>
