<svg width="490" height="394" viewBox="0 0 490 394" fill="none" xmlns="http://www.w3.org/2000/svg">
<path d="M134.35 264.059L465.25 98.6084" stroke="#1561AB" stroke-width="9"/>
<path d="M137.266 337.245L141.393 338.78M141.393 338.78C141.394 338.694 141.394 338.608 141.394 338.522C141.41 321.637 135.677 301.012 124.145 283.003C100.669 246.343 60.7745 229.167 36.6134 244.638C21.969 254.016 16.9313 275.152 19.7256 297L23.5585 298.917M141.393 338.78L479.665 137.938C479.665 137.938 480.942 106.636 461.778 90.6663C442.614 74.697 421 77 421 77" stroke="#1561AB" stroke-width="2"/>
<path d="M158.5 323.5L154 321.913C154 315.5 151.5 300.058 145.799 289.23C121.904 243.841 78.3606 219.772 48.5416 235.47C39.5288 240.215 35.696 245.256 35.696 245.256" stroke="#1561AB" stroke-width="2"/>
<path d="M475.607 134.53L158.733 322.525C156.834 306.638 152.151 288.761 143 274.471C142.443 273.6 141.877 272.739 141.304 271.887C128.161 252.362 111.021 237.965 93.8222 230.54C80.9604 224.988 67.9567 223.298 56.586 226.414C56.8787 226.268 57.1568 226.131 57.4204 226.002C58.7099 225.372 59.6534 224.941 60.2693 224.67C60.5772 224.535 60.8032 224.439 60.9495 224.379C60.9859 224.364 61.0172 224.351 61.0438 224.34C61.0707 224.329 61.0926 224.32 61.1095 224.313L61.1452 224.299L61.1517 224.297L61.1521 224.296L61.1525 224.296L61.1528 224.296L61.1733 224.288L61.1946 224.279L60.609 222.898C61.1946 224.279 61.1959 224.279 61.1984 224.278L61.2096 224.273L61.2547 224.254L61.4337 224.178L62.1413 223.878L64.9028 222.707C67.3225 221.681 70.8733 220.176 75.3976 218.258C84.4463 214.423 97.3892 208.939 112.966 202.342C144.12 189.149 185.809 171.505 227.951 153.706C312.288 118.084 398.303 81.8961 405.489 79.4181C412.441 77.0208 421.297 76.635 430.159 78.223C439.014 79.8097 447.745 83.3442 454.46 88.6487C461.413 94.1403 464.282 96.921 465.84 99.118C466.6 100.191 467.066 101.151 467.548 102.302C467.685 102.63 467.827 102.982 467.98 103.361C468.354 104.291 468.791 105.375 469.374 106.629C472.623 113.622 474.187 120.811 474.936 126.272C475.309 128.998 475.478 131.281 475.553 132.878C475.585 133.561 475.6 134.118 475.607 134.53Z" stroke="#1561AB" stroke-width="3"/>
<path d="M137.266 337.883C137.5 321.681 132.338 303.695 121.144 286.214C98.9393 251.539 62.5929 235.177 39.9619 249.669C25.9408 258.648 20.4084 277.729 23.5585 298.915C23.5963 299.169 98.9375 261.226 98.9375 261.226" stroke="#1561AB" stroke-width="2"/>
<path d="M125.904 79.008C126.096 78.8 126.304 78.656 126.496 78.56C126.8 78.416 127.056 78.368 127.376 78.368C127.584 78.368 127.904 78.384 128.128 78.544C128.272 78.64 128.416 78.832 128.416 79.12C128.416 79.456 128.256 79.616 128.128 79.712C127.936 79.84 127.584 79.888 127.36 79.888H126.768V81.168H127.472C127.856 81.168 128.32 81.168 128.592 81.456C128.72 81.584 128.8 81.776 128.8 82C128.8 82.224 128.704 82.432 128.56 82.592C128.272 82.88 127.76 82.928 127.488 82.928C127.12 82.928 126.752 82.848 126.48 82.672C126.224 82.512 126.016 82.24 125.888 81.968L124.64 82.608C124.896 83.2 125.312 83.584 125.696 83.808C126.304 84.16 126.976 84.208 127.456 84.208C128.544 84.208 129.296 83.968 129.824 83.44C130.208 83.056 130.4 82.576 130.4 81.952C130.4 81.616 130.32 81.184 129.968 80.832C129.728 80.592 129.36 80.416 128.992 80.336C129.184 80.256 129.424 80.128 129.632 79.856C129.872 79.552 129.92 79.264 129.92 78.928C129.92 78.352 129.728 77.92 129.216 77.552C128.672 77.168 128.08 77.088 127.504 77.088C127.072 77.088 126.48 77.136 125.92 77.376C125.456 77.584 125.12 77.856 124.896 78.128L125.904 79.008ZM136.967 78.048C136.327 77.216 135.463 77.088 134.967 77.088C133.191 77.088 131.687 78.432 131.687 80.624C131.687 82.48 132.871 84.208 134.951 84.208C135.431 84.208 136.279 84.096 136.967 83.296V84H138.535V77.264H136.967V78.048ZM135.159 78.496C136.151 78.496 137.063 79.2 137.063 80.672C137.063 82.08 136.151 82.8 135.159 82.8C134.023 82.8 133.287 81.824 133.287 80.656C133.287 79.456 134.023 78.496 135.159 78.496ZM140.523 84H149.387V85.92H150.827V82.56H149.707V77.264H148.139V82.56H145.899V77.264H144.331V82.56H142.091V77.264H140.523V84ZM151.945 77.264V84.512L156.553 80.08V84H158.121V76.656L153.513 81.088V77.264H151.945ZM164.741 78.704V77.264H159.237V78.704H161.205V84H162.773V78.704H164.741ZM165.867 84H167.435V81.2H170.219V84H171.787V77.264H170.219V79.76H167.435V77.264H165.867V84ZM177.021 77.088C174.989 77.088 173.421 78.56 173.421 80.64C173.421 82.704 174.989 84.208 177.021 84.208C179.053 84.208 180.621 82.704 180.621 80.64C180.621 78.56 179.053 77.088 177.021 77.088ZM177.021 82.8C175.789 82.8 175.021 81.952 175.021 80.656C175.021 79.12 176.029 78.496 177.021 78.496C178.013 78.496 179.021 79.12 179.021 80.656C179.021 81.952 178.253 82.8 177.021 82.8ZM186.978 81.728C186.834 81.984 186.626 82.256 186.354 82.464C186.034 82.704 185.714 82.8 185.282 82.8C184.898 82.8 184.45 82.736 184.082 82.368C183.746 82.032 183.538 81.488 183.506 81.008H188.338V80.816C188.338 80.112 188.258 78.864 187.394 77.968C186.994 77.552 186.306 77.088 185.234 77.088C184.274 77.088 183.538 77.44 182.978 78C182.274 78.72 181.906 79.728 181.906 80.768C181.906 81.776 182.258 82.704 182.898 83.344C183.538 83.984 184.274 84.208 185.17 84.208C185.89 84.208 186.61 84.048 187.154 83.696C187.586 83.424 188.002 82.976 188.29 82.464L186.978 81.728ZM183.618 79.728C183.698 79.392 183.874 79.072 184.098 78.864C184.306 78.656 184.658 78.432 185.202 78.432C185.714 78.432 186.05 78.624 186.258 78.816C186.498 79.04 186.674 79.36 186.738 79.728H183.618ZM193.711 77.264V84H195.279V78.704H197.999V84H199.567V77.264H193.711ZM204.803 77.088C202.771 77.088 201.203 78.56 201.203 80.64C201.203 82.704 202.771 84.208 204.803 84.208C206.835 84.208 208.403 82.704 208.403 80.64C208.403 78.56 206.835 77.088 204.803 77.088ZM204.803 82.8C203.571 82.8 202.803 81.952 202.803 80.656C202.803 79.12 203.811 78.496 204.803 78.496C205.795 78.496 206.803 79.12 206.803 80.656C206.803 81.952 206.035 82.8 204.803 82.8ZM210.039 77.264V84H211.607V81.488L211.863 81.232L214.103 84H216.087L212.983 80.208L215.927 77.264H213.847L211.607 79.664V77.264H210.039ZM218.685 83.216C219.389 84.08 220.333 84.208 220.701 84.208C222.301 84.208 223.965 82.864 223.965 80.592C223.965 78.448 222.461 77.088 220.685 77.088C220.013 77.088 219.261 77.312 218.685 78V77.264H217.117V87.664H218.685V83.216ZM220.493 78.496C221.629 78.496 222.365 79.456 222.365 80.656C222.365 81.824 221.629 82.8 220.493 82.8C219.501 82.8 218.589 82.08 218.589 80.672C218.589 79.2 219.501 78.496 220.493 78.496ZM225.601 84H228.049C228.721 84 229.425 84 230.017 83.424C230.321 83.12 230.625 82.592 230.625 81.808C230.625 81.408 230.545 80.832 230.097 80.336C229.489 79.664 228.721 79.648 228.065 79.648H227.169V77.264H225.601V84ZM227.169 82.656V80.992H227.905C228.145 80.992 228.465 80.992 228.721 81.152C228.913 81.28 229.057 81.488 229.057 81.824C229.057 82.24 228.817 82.432 228.705 82.512C228.497 82.64 228.193 82.656 227.889 82.656H227.169ZM231.329 84H232.897V77.264H231.329V84ZM239.523 78.704V77.264H234.019V78.704H235.987V84H237.555V78.704H239.523ZM240.648 77.264V84.512L245.256 80.08V84H246.824V76.656L242.216 81.088V77.264H240.648ZM253.525 81.728C253.381 81.984 253.173 82.256 252.901 82.464C252.581 82.704 252.261 82.8 251.829 82.8C251.445 82.8 250.997 82.736 250.629 82.368C250.293 82.032 250.085 81.488 250.053 81.008H254.885V80.816C254.885 80.112 254.805 78.864 253.941 77.968C253.541 77.552 252.853 77.088 251.781 77.088C250.821 77.088 250.085 77.44 249.525 78C248.821 78.72 248.453 79.728 248.453 80.768C248.453 81.776 248.805 82.704 249.445 83.344C250.085 83.984 250.821 84.208 251.717 84.208C252.437 84.208 253.157 84.048 253.701 83.696C254.133 83.424 254.549 82.976 254.837 82.464L253.525 81.728ZM250.164 79.728C250.245 79.392 250.421 79.072 250.645 78.864C250.853 78.656 251.205 78.432 251.749 78.432C252.261 78.432 252.597 78.624 252.805 78.816C253.045 79.04 253.221 79.36 253.285 79.728H250.164ZM128.224 101.272C127.824 100.328 127.456 99.192 127.248 98.296C127.072 97.496 126.88 96.264 126.88 94.52C126.88 93.176 127.008 91.768 127.264 90.616C127.456 89.736 127.808 88.664 128.224 87.72L126.784 87.16C126.288 88.2 125.984 89.128 125.728 90.28C125.376 91.848 125.28 93.032 125.28 94.52C125.28 95.96 125.36 97.096 125.696 98.6C125.952 99.736 126.272 100.744 126.784 101.832L128.224 101.272ZM135.508 88.136C132.308 88.136 129.956 90.536 129.956 93.672C129.956 96.808 132.308 99.208 135.508 99.208C138.708 99.208 141.06 96.808 141.06 93.672C141.06 90.536 138.708 88.136 135.508 88.136ZM135.508 97.704C133.22 97.704 131.588 96.04 131.588 93.672C131.588 91.304 133.22 89.64 135.508 89.64C137.796 89.64 139.428 91.304 139.428 93.672C139.428 96.04 137.796 97.704 135.508 97.704ZM143.108 99H150.628V101.4H152.164V97.464H150.788V88.328H149.156V97.464H144.74V88.328H143.108V99ZM157.117 92.264V99.512L161.725 95.08V99H163.293V91.656L158.685 96.088V92.264H157.117ZM170.809 92.264H165.753V96.376C165.753 96.632 165.721 97 165.513 97.256C165.305 97.496 164.873 97.672 164.409 97.56V99C165.129 99.112 166.009 98.984 166.617 98.312C167.177 97.704 167.257 96.952 167.257 96.376V93.704H169.241V99H170.809V92.264ZM172.789 92.264V99.512L177.397 95.08V99H178.965V91.656L174.357 96.088V92.264H172.789ZM189.48 99H191.112V97.496H191.4C194.728 97.496 196.136 95.624 196.136 93.336C196.136 91.048 194.728 89.176 191.4 89.176H191.112V87.896H189.48V89.176H189.192C185.864 89.176 184.456 91.048 184.456 93.336C184.456 95.624 185.864 97.496 189.192 97.496H189.48V99ZM189.48 95.992H189.16C187.032 95.992 186.088 94.84 186.088 93.336C186.088 91.832 187.032 90.68 189.16 90.68H189.48V95.992ZM191.112 90.68H191.432C193.56 90.68 194.504 91.832 194.504 93.336C194.504 94.84 193.56 95.992 191.432 95.992H191.112V90.68ZM201.146 92.088C199.114 92.088 197.546 93.56 197.546 95.64C197.546 97.704 199.114 99.208 201.146 99.208C203.178 99.208 204.746 97.704 204.746 95.64C204.746 93.56 203.178 92.088 201.146 92.088ZM201.146 97.8C199.914 97.8 199.146 96.952 199.146 95.656C199.146 94.12 200.154 93.496 201.146 93.496C202.138 93.496 203.146 94.12 203.146 95.656C203.146 96.952 202.378 97.8 201.146 97.8ZM211.919 92.264H206.863V96.376C206.863 96.632 206.831 97 206.623 97.256C206.415 97.496 205.983 97.672 205.519 97.56V99C206.239 99.112 207.119 98.984 207.727 98.312C208.287 97.704 208.367 96.952 208.367 96.376V93.704H210.351V99H211.919V92.264ZM213.898 99H216.346C217.018 99 217.722 99 218.314 98.424C218.618 98.12 218.922 97.592 218.922 96.808C218.922 96.408 218.842 95.832 218.394 95.336C217.786 94.664 217.018 94.648 216.362 94.648H215.466V92.264H213.898V99ZM215.466 97.656V95.992H216.202C216.442 95.992 216.762 95.992 217.018 96.152C217.21 96.28 217.354 96.488 217.354 96.824C217.354 97.24 217.114 97.432 217.002 97.512C216.794 97.64 216.49 97.656 216.186 97.656H215.466ZM220.305 99H221.873V93.704H224.433V92.264H220.305V99ZM230.326 93.048C229.686 92.216 228.822 92.088 228.326 92.088C226.55 92.088 225.046 93.432 225.046 95.624C225.046 97.48 226.23 99.208 228.31 99.208C228.79 99.208 229.638 99.096 230.326 98.296V99H231.894V92.264H230.326V93.048ZM228.518 93.496C229.51 93.496 230.422 94.2 230.422 95.672C230.422 97.08 229.51 97.8 228.518 97.8C227.382 97.8 226.646 96.824 226.646 95.656C226.646 94.456 227.382 93.496 228.518 93.496ZM235.291 101.832C235.803 100.744 236.123 99.736 236.379 98.6C236.715 97.096 236.795 95.96 236.795 94.52C236.795 93.032 236.699 91.848 236.347 90.28C236.091 89.128 235.787 88.2 235.291 87.16L233.851 87.72C234.267 88.664 234.619 89.736 234.811 90.616C235.067 91.768 235.195 93.176 235.195 94.52C235.195 96.264 235.003 97.496 234.827 98.296C234.619 99.192 234.251 100.328 233.851 101.272L235.291 101.832Z" fill="#027DE2"/>
<path d="M221.502 355.951L221.502 362.687L223.07 362.687L223.07 357.391L225.79 357.391L225.79 362.687L227.358 362.687L227.358 355.951L221.502 355.951ZM234.066 360.415C233.922 360.671 233.714 360.943 233.442 361.151C233.122 361.391 232.802 361.487 232.37 361.487C231.986 361.487 231.538 361.423 231.17 361.055C230.834 360.719 230.626 360.175 230.594 359.695L235.426 359.695L235.426 359.503C235.426 358.799 235.346 357.551 234.482 356.655C234.082 356.239 233.394 355.775 232.322 355.775C231.362 355.775 230.626 356.127 230.066 356.687C229.362 357.407 228.994 358.415 228.994 359.455C228.994 360.463 229.346 361.391 229.986 362.031C230.626 362.671 231.362 362.895 232.258 362.895C232.978 362.895 233.698 362.735 234.242 362.383C234.674 362.111 235.09 361.663 235.378 361.151L234.066 360.415ZM230.706 358.415C230.786 358.079 230.962 357.759 231.186 357.551C231.394 357.343 231.746 357.119 232.29 357.119C232.802 357.119 233.138 357.311 233.346 357.503C233.586 357.727 233.762 358.047 233.826 358.415L230.706 358.415ZM237.064 362.687L238.632 362.687L238.632 359.887L241.416 359.887L241.416 362.687L242.984 362.687L242.984 355.951L241.416 355.951L241.416 358.447L238.632 358.447L238.632 355.951L237.064 355.951L237.064 362.687ZM248.219 355.775C246.187 355.775 244.619 357.247 244.619 359.327C244.619 361.391 246.187 362.895 248.219 362.895C250.251 362.895 251.819 361.391 251.819 359.327C251.819 357.247 250.251 355.775 248.219 355.775ZM248.219 361.487C246.987 361.487 246.219 360.639 246.219 359.343C246.219 357.807 247.227 357.183 248.219 357.183C249.211 357.183 250.219 357.807 250.219 359.343C250.219 360.639 249.451 361.487 248.219 361.487ZM253.455 355.951L253.455 362.687L255.023 362.687L255.023 357.391L257.743 357.391L257.743 362.687L259.311 362.687L259.311 355.951L253.455 355.951ZM264.547 355.775C262.515 355.775 260.947 357.247 260.947 359.327C260.947 361.391 262.515 362.895 264.547 362.895C266.579 362.895 268.147 361.391 268.147 359.327C268.147 357.247 266.579 355.775 264.547 355.775ZM264.547 361.487C263.315 361.487 262.547 360.639 262.547 359.343C262.547 357.807 263.555 357.183 264.547 357.183C265.539 357.183 266.547 357.807 266.547 359.343C266.547 360.639 265.779 361.487 264.547 361.487ZM275.319 355.951L270.263 355.951L270.263 360.063C270.263 360.319 270.231 360.687 270.023 360.943C269.815 361.183 269.383 361.359 268.919 361.247L268.919 362.687C269.639 362.799 270.519 362.671 271.127 361.999C271.687 361.391 271.767 360.639 271.767 360.063L271.767 357.391L273.751 357.391L273.751 362.687L275.319 362.687L275.319 355.951ZM277.299 355.951L277.299 363.199L281.907 358.767L281.907 362.687L283.475 362.687L283.475 355.343L278.867 359.775L278.867 355.951L277.299 355.951ZM284.959 366.351L286.719 366.351L292.079 355.951L290.319 355.951L288.367 359.887L286.447 355.951L284.559 355.951L287.439 361.631L284.959 366.351ZM294.742 361.903C295.446 362.767 296.39 362.895 296.758 362.895C298.358 362.895 300.022 361.551 300.022 359.279C300.022 357.135 298.518 355.775 296.742 355.775C296.07 355.775 295.318 355.999 294.742 356.687L294.742 355.951L293.174 355.951L293.174 366.351L294.742 366.351L294.742 361.903ZM296.55 357.183C297.686 357.183 298.422 358.143 298.422 359.343C298.422 360.511 297.686 361.487 296.55 361.487C295.558 361.487 294.646 360.767 294.646 359.359C294.646 357.887 295.558 357.183 296.55 357.183ZM306.378 360.415C306.234 360.671 306.026 360.943 305.754 361.151C305.434 361.391 305.114 361.487 304.682 361.487C304.298 361.487 303.85 361.423 303.482 361.055C303.146 360.719 302.938 360.175 302.906 359.695L307.738 359.695L307.738 359.503C307.738 358.799 307.658 357.551 306.794 356.655C306.394 356.239 305.706 355.775 304.634 355.775C303.674 355.775 302.938 356.127 302.378 356.687C301.674 357.407 301.306 358.415 301.306 359.455C301.306 360.463 301.658 361.391 302.298 362.031C302.938 362.671 303.674 362.895 304.57 362.895C305.29 362.895 306.01 362.735 306.554 362.383C306.986 362.111 307.402 361.663 307.69 361.151L306.378 360.415ZM303.018 358.415C303.098 358.079 303.274 357.759 303.498 357.551C303.706 357.343 304.058 357.119 304.602 357.119C305.114 357.119 305.45 357.311 305.658 357.503C305.898 357.727 306.074 358.047 306.138 358.415L303.018 358.415ZM314.017 357.391L314.017 355.951L308.513 355.951L308.513 357.391L310.481 357.391L310.481 362.687L312.049 362.687L312.049 357.391L314.017 357.391ZM319.899 356.735C319.259 355.903 318.395 355.775 317.899 355.775C316.123 355.775 314.619 357.119 314.619 359.311C314.619 361.167 315.803 362.895 317.883 362.895C318.363 362.895 319.211 362.783 319.899 361.983L319.899 362.687L321.467 362.687L321.467 355.951L319.899 355.951L319.899 356.735ZM318.091 357.183C319.083 357.183 319.995 357.887 319.995 359.359C319.995 360.767 319.083 361.487 318.091 361.487C316.955 361.487 316.219 360.511 316.219 359.343C316.219 358.143 316.955 357.183 318.091 357.183ZM323.455 362.687L325.023 362.687L325.023 359.887L327.807 359.887L327.807 362.687L329.375 362.687L329.375 355.951L327.807 355.951L327.807 358.447L325.023 358.447L325.023 355.951L323.455 355.951L323.455 362.687Z" fill="#027DE2"/>
<path d="M304.196 137.425C302.113 139.508 302.113 142.885 304.196 144.968C306.279 147.051 309.656 147.051 311.738 144.968C313.821 142.885 313.821 139.508 311.738 137.425C309.656 135.343 306.279 135.343 304.196 137.425ZM245.385 93.5582L307.351 141.985L308.583 140.409L246.616 91.9823L245.385 93.5582Z" fill="#027DE2"/>
<path d="M156.771 305.948C158.854 303.865 158.854 300.488 156.771 298.405C154.688 296.323 151.311 296.323 149.229 298.405C147.146 300.488 147.146 303.865 149.229 305.948C151.311 308.031 154.688 308.031 156.771 305.948ZM219.302 352.722L153.616 301.389L152.384 302.965L218.071 354.298L219.302 352.722Z" fill="#027DE2"/>
</svg>
