<svg width="498" height="422" viewBox="0 0 498 422" fill="none" xmlns="http://www.w3.org/2000/svg">
<path d="M187.802 342.46C213.834 324.75 215.739 282.172 192.056 247.36C168.373 212.548 128.07 198.684 102.038 216.394C76.0054 234.104 74.1009 276.682 97.7839 311.494C121.467 346.306 161.769 360.17 187.802 342.46Z" fill="#FBFBFB" fill-opacity="0.4" stroke="#1561AB" stroke-width="4" stroke-miterlimit="10"/>
<path d="M185.291 338.725C209.286 322.401 210.695 282.648 188.44 249.933C166.184 217.219 128.69 203.932 104.695 220.256C80.7004 236.58 79.2906 276.333 101.546 309.048C123.802 341.762 161.296 355.049 185.291 338.725Z" stroke="#1561AB" stroke-width="3" stroke-miterlimit="10"/>
<path d="M158.069 355.619C184.678 342.723 190.695 304.68 171.509 270.647C152.323 236.614 115.2 219.479 88.5914 232.375C61.9831 245.271 55.9659 283.314 75.1516 317.347C94.3374 351.38 131.461 368.515 158.069 355.619Z" fill="#FBFBFB" fill-opacity="0.4" stroke="#1561AB" stroke-width="4" stroke-miterlimit="10"/>
<path d="M156.147 351.669C180.272 339.977 185.244 304.626 167.252 272.711C149.26 240.796 115.117 224.402 90.9921 236.094C66.8673 247.786 61.8956 283.137 79.8876 315.052C97.8797 346.968 132.022 363.362 156.147 351.669Z" fill="#FBFBFB" fill-opacity="0.4" stroke="#1561AB" stroke-width="3" stroke-miterlimit="10"/>
<path d="M128.032 370.741C153.397 358.448 159.133 322.184 140.844 289.742C122.555 257.3 87.1668 240.966 61.8022 253.259C36.4377 265.552 30.7017 301.816 48.9907 334.258C67.2797 366.7 102.668 383.034 128.032 370.741Z" fill="#FBFBFB" fill-opacity="0.4" stroke="#1561AB" stroke-width="4" stroke-miterlimit="10"/>
<path d="M126.2 366.976C149.197 355.831 153.937 322.132 136.786 291.709C119.635 261.285 87.0881 245.658 64.0909 256.803C41.0937 267.949 36.3544 301.647 53.5055 332.071C70.6565 362.494 103.203 378.122 126.2 366.976Z" fill="#FBFBFB" fill-opacity="0.4" stroke="#1561AB" stroke-width="3" stroke-miterlimit="10"/>
<path d="M70.6514 347.762L67.4132 350.11L72.1098 356.586L75.3479 354.238L70.6514 347.762ZM140.848 306.738L144.086 304.39L139.39 297.914L136.151 300.262L140.848 306.738ZM75.3479 354.238L140.848 306.738L136.151 300.262L70.6514 347.762L75.3479 354.238Z" fill="#1561AB"/>
<mask id="mask0_134_2322" style="mask-type:alpha" maskUnits="userSpaceOnUse" x="89" y="209" width="132" height="142">
<path d="M200.278 343.346C224.916 327.987 224.561 287.15 199.485 252.136C174.409 217.121 134.109 201.187 109.471 216.547C84.8337 231.906 85.1888 272.742 110.264 307.757C135.34 342.772 175.641 358.706 200.278 343.346Z" fill="#FBFBFB" fill-opacity="0.26" stroke="#1561AB" stroke-width="3" stroke-miterlimit="10"/>
</mask>
<g mask="url(#mask0_134_2322)">
<path d="M106.795 228.357L117.327 221.973L127.86 215.59" stroke="#1561AB" stroke-width="3" stroke-linecap="round" stroke-linejoin="round" stroke-dasharray="4 6"/>
<path d="M114.382 229.167L124.914 222.783L135.447 216.4" stroke="#1561AB" stroke-width="3" stroke-linecap="round" stroke-linejoin="round" stroke-dasharray="4 6"/>
<path d="M125.341 230.337L135.873 223.954L146.406 217.571" stroke="#1561AB" stroke-width="3" stroke-linecap="round" stroke-linejoin="round" stroke-dasharray="4 6"/>
<path d="M130.912 234.572L141.444 228.189L151.977 221.806" stroke="#1561AB" stroke-width="3" stroke-linecap="round" stroke-linejoin="round" stroke-dasharray="4 6"/>
<path d="M138.884 238.154L149.416 231.771L159.948 225.387" stroke="#1561AB" stroke-width="3" stroke-linecap="round" stroke-linejoin="round" stroke-dasharray="4 6"/>
<path d="M138.884 238.154L149.416 231.771L159.948 225.387" stroke="#1561AB" stroke-width="3" stroke-linecap="round" stroke-linejoin="round" stroke-dasharray="4 6"/>
<path d="M146.5 244.5L154.53 238.687L165.062 232.304" stroke="#1561AB" stroke-width="3" stroke-linecap="round" stroke-linejoin="round" stroke-dasharray="4 6"/>
<path d="M154 249.501L161.2 244.86L171.733 238.477" stroke="#1561AB" stroke-width="3" stroke-linecap="round" stroke-linejoin="round" stroke-dasharray="4 6"/>
<path d="M159.739 256.762L170.272 250.379L180.804 243.996" stroke="#1561AB" stroke-width="3" stroke-linecap="round" stroke-linejoin="round" stroke-dasharray="4 6"/>
<path d="M166 263L172.398 259.707L182.931 253.324" stroke="#1561AB" stroke-width="3" stroke-linecap="round" stroke-linejoin="round" stroke-dasharray="4 6"/>
<path d="M173.499 270.5L180.754 266.06L191.287 259.677" stroke="#1561AB" stroke-width="3" stroke-linecap="round" stroke-linejoin="round" stroke-dasharray="4 6"/>
<path d="M177 279L182.881 275.388L193.414 269.005" stroke="#1561AB" stroke-width="3" stroke-linecap="round" stroke-linejoin="round" stroke-dasharray="4 6"/>
<path d="M180.875 288.445L190.437 282.223L199.999 276" stroke="#1561AB" stroke-width="3" stroke-linecap="round" stroke-linejoin="round" stroke-dasharray="4 6"/>
<path d="M182.159 297.683L188.691 293.3L199.223 286.916" stroke="#1561AB" stroke-width="3" stroke-linecap="round" stroke-linejoin="round" stroke-dasharray="4 6"/>
<path d="M184.481 306.468L192.916 301.356L201.35 296.244" stroke="#1561AB" stroke-width="3" stroke-linecap="round" stroke-linejoin="round" stroke-dasharray="4 6"/>
<path d="M184.226 314.634L193.301 309.134L202.376 303.634" stroke="#1561AB" stroke-width="3" stroke-linecap="round" stroke-linejoin="round" stroke-dasharray="4 6"/>
<path d="M186.252 321.819L194.471 316.839L202.689 311.858" stroke="#1561AB" stroke-width="3" stroke-linecap="round" stroke-linejoin="round" stroke-dasharray="4 6"/>
<path d="M182.778 332.939L190.37 328.337L197.963 323.736" stroke="#1561AB" stroke-width="3" stroke-linecap="round" stroke-linejoin="round" stroke-dasharray="4 6"/>
<path d="M182.834 339.315L193.366 332.932L203.899 326.549" stroke="#1561AB" stroke-width="3" stroke-linecap="round" stroke-linejoin="round" stroke-dasharray="4 6"/>
</g>
<path d="M210.254 323.258C236.354 305.502 238.395 263.478 216.046 230.627C193.698 197.777 154.423 185.54 128.323 203.296" stroke="#1561AB" stroke-width="2" stroke-miterlimit="10"/>
<path d="M240.03 296.687C266.302 278.814 270.244 238.815 248.835 207.347C227.427 175.878 188.775 164.856 162.504 182.729" stroke="#1561AB" stroke-width="0.5" stroke-miterlimit="10"/>
<path d="M272.061 269.368C296.952 252.434 300.832 214.749 280.727 185.197C260.622 155.644 224.146 145.415 199.255 162.348" stroke="#1561AB" stroke-width="0.5" stroke-miterlimit="10"/>
<path d="M304.998 243.397C325.927 229.159 327.327 194.737 308.126 166.513C288.925 138.289 256.394 126.952 235.465 141.189" stroke="#1561AB" stroke-width="0.5" stroke-miterlimit="10"/>
<path d="M334.041 217.004C352.168 204.672 352.704 173.863 335.238 148.189C317.772 122.516 288.919 111.701 270.792 124.033" stroke="#1561AB" stroke-width="0.5" stroke-miterlimit="10"/>
<path d="M360.216 195.963C378.265 183.685 379.379 153.861 362.704 129.35C346.029 104.84 317.88 94.9239 299.832 107.203" stroke="#1561AB" stroke-width="0.5" stroke-miterlimit="10"/>
<path d="M387.22 174.303C403.263 163.389 403.312 135.496 387.33 112.004C371.347 88.5111 345.386 78.3141 329.343 89.228" stroke="#1561AB" stroke-width="0.5" stroke-miterlimit="10"/>
<path d="M411.912 153.767C426.807 143.634 426.819 117.687 411.938 95.8137C397.057 73.9401 372.919 64.4228 358.024 74.5562" stroke="#1561AB" stroke-width="0.5" stroke-miterlimit="10"/>
<path d="M427.024 140.576C444.411 128.748 447.029 102.288 432.871 81.476C418.712 60.6644 393.14 53.3823 375.752 65.2109" stroke="#1561AB" stroke-width="2" stroke-miterlimit="10"/>
<path d="M448.78 71.3897L450.433 70.2647L448.78 71.3897ZM444.695 125.746L443.57 124.092L443.484 124.151L443.405 124.217L444.695 125.746ZM392.034 54.7278L393.008 56.4745L393.046 56.4534L393.083 56.4307L392.034 54.7278ZM98.9854 215.88C98.0207 216.418 97.6749 217.636 98.2129 218.601C98.7509 219.565 99.9691 219.911 100.934 219.373L98.9854 215.88ZM447.126 72.5146C452.32 80.1494 455.47 90.4081 455.25 100.12C455.03 109.814 451.477 118.713 443.57 124.092L445.82 127.4C455.095 121.09 459.009 110.786 459.249 100.211C459.488 89.6542 456.09 78.5791 450.433 70.2647L447.126 72.5146ZM393.083 56.4307C407.734 47.4076 433.236 52.0971 447.126 72.5146L450.433 70.2647C435.533 48.3621 407.735 42.709 390.985 53.0248L393.083 56.4307ZM100.934 219.373L393.008 56.4745L391.06 52.981L98.9854 215.88L100.934 219.373ZM443.405 124.217L188.033 339.68L190.613 342.737L445.985 127.275L443.405 124.217Z" fill="#1561AB"/>
<path d="M122.5 267L146.999 248.5" stroke="#1561AB" stroke-width="11" stroke-miterlimit="10"/>
<path d="M115 259.5L139.999 242" stroke="#1561AB" stroke-width="5" stroke-miterlimit="10"/>
<path d="M156.391 252L166.695 244L177 236" stroke="#1561AB" stroke-width="11" stroke-miterlimit="10"/>
<path d="M149.872 245L169.999 229.5" stroke="#1561AB" stroke-width="5" stroke-miterlimit="10"/>
<path d="M64.3497 348L136.999 294" stroke="#1561AB" stroke-width="4" stroke-miterlimit="10"/>
<path d="M74.9996 242L103 221.5" stroke="#1561AB" stroke-width="3" stroke-linecap="round"/>
<path d="M58.4996 254.5L85.9996 239" stroke="#1561AB" stroke-width="3" stroke-linecap="round"/>
<path d="M131.5 368.5L160.5 349" stroke="#1561AB" stroke-width="3" stroke-linecap="round"/>
<path d="M167 350L186 338" stroke="#1561AB" stroke-width="3" stroke-linecap="round"/>
<path d="M166.14 332.2C168.838 331.017 170.067 327.872 168.885 325.174C167.702 322.476 164.557 321.248 161.859 322.43C159.161 323.612 157.933 326.758 159.115 329.456C160.297 332.153 163.443 333.382 166.14 332.2ZM211.207 405.778L164.862 326.809L163.137 327.821L209.482 406.791L211.207 405.778Z" fill="#027DE2"/>
<path d="M217.432 412.372C216.802 412.022 216.27 411.952 215.822 411.952C214.66 411.952 213.918 412.358 213.456 412.82C213.022 413.254 212.56 413.996 212.56 415.102C212.56 416.18 212.98 416.88 213.4 417.314C213.96 417.902 214.66 418.182 215.64 418.182C216.55 418.182 217.096 417.93 217.432 417.72L217.432 416.194C216.956 416.726 216.298 416.95 215.738 416.95C215.234 416.95 214.8 416.768 214.492 416.474C214.226 416.208 213.96 415.746 213.96 415.06C213.96 414.402 214.212 413.954 214.464 413.702C214.716 413.45 215.122 413.184 215.766 413.184C216.186 413.184 216.802 413.296 217.432 413.912L217.432 412.372ZM222.944 413.366L222.944 412.106L218.128 412.106L218.128 413.366L219.85 413.366L219.85 418L221.222 418L221.222 413.366L222.944 413.366ZM228.09 412.792C227.53 412.064 226.774 411.952 226.34 411.952C224.786 411.952 223.47 413.128 223.47 415.046C223.47 416.67 224.506 418.182 226.326 418.182C226.746 418.182 227.488 418.084 228.09 417.384L228.09 418L229.462 418L229.462 412.106L228.09 412.106L228.09 412.792ZM226.508 413.184C227.376 413.184 228.174 413.8 228.174 415.088C228.174 416.32 227.376 416.95 226.508 416.95C225.514 416.95 224.87 416.096 224.87 415.074C224.87 414.024 225.514 413.184 226.508 413.184ZM236.046 412.106L231.622 412.106L231.622 415.704C231.622 415.928 231.594 416.25 231.412 416.474C231.23 416.684 230.852 416.838 230.446 416.74L230.446 418C231.076 418.098 231.846 417.986 232.378 417.398C232.868 416.866 232.938 416.208 232.938 415.704L232.938 413.366L234.674 413.366L234.674 418L236.046 418L236.046 412.106ZM237.778 418L239.92 418C240.508 418 241.124 418 241.642 417.496C241.908 417.23 242.174 416.768 242.174 416.082C242.174 415.732 242.104 415.228 241.712 414.794C241.18 414.206 240.508 414.192 239.934 414.192L239.15 414.192L239.15 412.106L237.778 412.106L237.778 418ZM239.15 416.824L239.15 415.368L239.794 415.368C240.004 415.368 240.284 415.368 240.508 415.508C240.676 415.62 240.802 415.802 240.802 416.096C240.802 416.46 240.592 416.628 240.494 416.698C240.312 416.81 240.046 416.824 239.78 416.824L239.15 416.824ZM243.384 418L244.756 418L244.756 415.55L247.192 415.55L247.192 418L248.564 418L248.564 412.106L247.192 412.106L247.192 414.29L244.756 414.29L244.756 412.106L243.384 412.106L243.384 418ZM254.614 412.792C254.054 412.064 253.298 411.952 252.864 411.952C251.31 411.952 249.994 413.128 249.994 415.046C249.994 416.67 251.03 418.182 252.85 418.182C253.27 418.182 254.012 418.084 254.614 417.384L254.614 418L255.986 418L255.986 412.106L254.614 412.106L254.614 412.792ZM253.032 413.184C253.9 413.184 254.698 413.8 254.698 415.088C254.698 416.32 253.9 416.95 253.032 416.95C252.038 416.95 251.394 416.096 251.394 415.074C251.394 414.024 252.038 413.184 253.032 413.184ZM256.969 418L258.579 418L260.189 415.83L260.469 415.83L260.469 418L261.841 418L261.841 412.106L259.643 412.106C259.041 412.106 258.439 412.162 257.935 412.638C257.473 413.072 257.389 413.618 257.389 413.996C257.389 414.416 257.501 414.85 257.879 415.214C258.103 415.424 258.425 415.606 258.817 415.662L256.969 418ZM260.469 414.71L259.657 414.71C259.321 414.71 259.069 414.682 258.901 414.57C258.761 414.472 258.621 414.29 258.621 413.996C258.621 413.73 258.775 413.52 258.957 413.408C259.153 413.296 259.405 413.282 259.671 413.282L260.469 413.282L260.469 414.71ZM270.905 413.366L270.905 412.106L266.089 412.106L266.089 413.366L267.811 413.366L267.811 418L269.183 418L269.183 413.366L270.905 413.366ZM273.261 417.314C273.877 418.07 274.703 418.182 275.025 418.182C276.425 418.182 277.881 417.006 277.881 415.018C277.881 413.142 276.565 411.952 275.011 411.952C274.423 411.952 273.765 412.148 273.261 412.75L273.261 412.106L271.889 412.106L271.889 421.206L273.261 421.206L273.261 417.314ZM274.843 413.184C275.837 413.184 276.481 414.024 276.481 415.074C276.481 416.096 275.837 416.95 274.843 416.95C273.975 416.95 273.177 416.32 273.177 415.088C273.177 413.8 273.975 413.184 274.843 413.184ZM278.879 421.206L280.419 421.206L285.109 412.106L283.569 412.106L281.861 415.55L280.181 412.106L278.529 412.106L281.049 417.076L278.879 421.206ZM290.519 408.06C290.449 408.298 290.253 408.62 289.399 408.83L288.419 409.068C287.621 409.264 287.089 409.684 286.655 410.328C285.983 411.308 285.759 412.61 285.759 414.374C285.759 415.186 285.787 416.488 286.753 417.398C287.159 417.79 287.873 418.182 288.909 418.182C290.687 418.182 292.059 416.88 292.059 415.032C292.059 414.08 291.709 413.31 291.205 412.792C290.715 412.288 290.043 411.952 289.147 411.952C288.573 411.952 287.663 412.078 287.145 412.778L287.131 412.778C287.145 412.302 287.299 411.616 287.621 411.182C288.041 410.608 288.601 410.454 289.147 410.3L290.071 410.048C291.023 409.782 291.723 409.026 291.919 408.06L290.519 408.06ZM288.909 416.95C287.831 416.95 287.159 416.208 287.159 415.074C287.159 413.73 288.041 413.184 288.909 413.184C289.777 413.184 290.659 413.73 290.659 415.074C290.659 416.208 289.987 416.95 288.909 416.95ZM297.803 412.792C297.243 412.064 296.487 411.952 296.053 411.952C294.499 411.952 293.183 413.128 293.183 415.046C293.183 416.67 294.219 418.182 296.039 418.182C296.459 418.182 297.201 418.084 297.803 417.384L297.803 418L299.175 418L299.175 412.106L297.803 412.106L297.803 412.792ZM296.221 413.184C297.089 413.184 297.887 413.8 297.887 415.088C297.887 416.32 297.089 416.95 296.221 416.95C295.227 416.95 294.583 416.096 294.583 415.074C294.583 414.024 295.227 413.184 296.221 413.184Z" fill="#027DE2"/>
<path d="M196.399 287.648C199.097 286.466 200.326 283.32 199.143 280.622C197.961 277.925 194.815 276.696 192.118 277.878C189.42 279.061 188.191 282.206 189.374 284.904C190.556 287.602 193.701 288.83 196.399 287.648ZM229.616 341.036L195.121 282.257L193.396 283.269L227.891 342.049L229.616 341.036Z" fill="#027DE2"/>
<path d="M312.68 116.47C311.918 119.316 313.606 122.24 316.452 123.002C319.297 123.765 322.221 122.076 322.983 119.231C323.746 116.386 322.057 113.462 319.212 112.699C316.367 111.937 313.443 113.625 312.68 116.47ZM225.856 105.512L317.688 118.84L317.976 116.861L226.144 103.533L225.856 105.512Z" fill="#027DE2"/>
<path d="M238.432 350.372C237.802 350.022 237.27 349.952 236.822 349.952C235.66 349.952 234.918 350.358 234.456 350.82C234.022 351.254 233.56 351.996 233.56 353.102C233.56 354.18 233.98 354.88 234.4 355.314C234.96 355.902 235.66 356.182 236.64 356.182C237.55 356.182 238.096 355.93 238.432 355.72L238.432 354.194C237.956 354.726 237.298 354.95 236.738 354.95C236.234 354.95 235.8 354.768 235.492 354.474C235.226 354.208 234.96 353.746 234.96 353.06C234.96 352.402 235.212 351.954 235.464 351.702C235.716 351.45 236.122 351.184 236.766 351.184C237.186 351.184 237.802 351.296 238.432 351.912L238.432 350.372ZM244.728 350.106L240.304 350.106L240.304 353.704C240.304 353.928 240.276 354.25 240.094 354.474C239.912 354.684 239.534 354.838 239.128 354.74L239.128 356C239.758 356.098 240.528 355.986 241.06 355.398C241.55 354.866 241.62 354.208 241.62 353.704L241.62 351.366L243.356 351.366L243.356 356L244.728 356L244.728 350.106ZM249.302 349.952C247.524 349.952 246.152 351.24 246.152 353.06C246.152 354.866 247.524 356.182 249.302 356.182C251.08 356.182 252.452 354.866 252.452 353.06C252.452 351.24 251.08 349.952 249.302 349.952ZM249.302 354.95C248.224 354.95 247.552 354.208 247.552 353.074C247.552 351.73 248.434 351.184 249.302 351.184C250.17 351.184 251.052 351.73 251.052 353.074C251.052 354.208 250.38 354.95 249.302 354.95ZM253.884 350.106L253.884 356.448L257.916 352.57L257.916 356L259.288 356L259.288 349.574L255.256 353.452L255.256 350.106L253.884 350.106ZM254.332 347.558C254.654 348.72 255.802 349.21 256.6 349.21C257.398 349.21 258.546 348.72 258.868 347.558L257.748 347.236C257.552 347.866 257.202 348.146 256.6 348.146C256.264 348.146 255.69 348.048 255.452 347.236L254.332 347.558ZM268.6 350.792C268.04 350.064 267.284 349.952 266.85 349.952C265.296 349.952 263.98 351.128 263.98 353.046C263.98 354.67 265.016 356.182 266.836 356.182C267.256 356.182 267.998 356.084 268.6 355.384L268.6 356L269.972 356L269.972 350.106L268.6 350.106L268.6 350.792ZM267.018 351.184C267.886 351.184 268.684 351.8 268.684 353.088C268.684 354.32 267.886 354.95 267.018 354.95C266.024 354.95 265.38 354.096 265.38 353.074C265.38 352.024 266.024 351.184 267.018 351.184ZM272.216 350.106L272.216 352.416C272.216 353.13 272.146 353.606 271.978 353.97C271.796 354.334 271.432 354.712 270.9 354.74L270.9 357.68L272.16 357.68L272.16 356L276.276 356L276.276 357.68L277.536 357.68L277.536 354.74L276.64 354.74L276.64 350.106L272.216 350.106ZM275.268 354.74L272.846 354.74C273.21 354.46 273.532 353.956 273.532 352.934L273.532 351.366L275.268 351.366L275.268 354.74ZM278.52 356L279.892 356L279.892 351.366L282.132 351.366L282.132 350.106L278.52 350.106L278.52 356ZM287.107 354.012C286.981 354.236 286.799 354.474 286.561 354.656C286.281 354.866 286.001 354.95 285.623 354.95C285.287 354.95 284.895 354.894 284.573 354.572C284.279 354.278 284.097 353.802 284.069 353.382L288.297 353.382L288.297 353.214C288.297 352.598 288.227 351.506 287.471 350.722C287.121 350.358 286.519 349.952 285.581 349.952C284.741 349.952 284.097 350.26 283.607 350.75C282.991 351.38 282.669 352.262 282.669 353.172C282.669 354.054 282.977 354.866 283.537 355.426C284.097 355.986 284.741 356.182 285.525 356.182C286.155 356.182 286.785 356.042 287.261 355.734C287.639 355.496 288.003 355.104 288.255 354.656L287.107 354.012ZM284.167 352.262C284.237 351.968 284.391 351.688 284.587 351.506C284.769 351.324 285.077 351.128 285.553 351.128C286.001 351.128 286.295 351.296 286.477 351.464C286.687 351.66 286.841 351.94 286.897 352.262L284.167 352.262ZM290.529 351.632C290.697 351.45 290.879 351.324 291.047 351.24C291.313 351.114 291.537 351.072 291.817 351.072C291.999 351.072 292.279 351.086 292.475 351.226C292.601 351.31 292.727 351.478 292.727 351.73C292.727 352.024 292.587 352.164 292.475 352.248C292.307 352.36 291.999 352.402 291.803 352.402L291.285 352.402L291.285 353.522L291.901 353.522C292.237 353.522 292.643 353.522 292.881 353.774C292.993 353.886 293.063 354.054 293.063 354.25C293.063 354.446 292.979 354.628 292.853 354.768C292.601 355.02 292.153 355.062 291.915 355.062C291.593 355.062 291.271 354.992 291.033 354.838C290.809 354.698 290.627 354.46 290.515 354.222L289.423 354.782C289.647 355.3 290.011 355.636 290.347 355.832C290.879 356.14 291.467 356.182 291.887 356.182C292.839 356.182 293.497 355.972 293.959 355.51C294.295 355.174 294.463 354.754 294.463 354.208C294.463 353.914 294.393 353.536 294.085 353.228C293.875 353.018 293.553 352.864 293.231 352.794C293.399 352.724 293.609 352.612 293.791 352.374C294.001 352.108 294.043 351.856 294.043 351.562C294.043 351.058 293.875 350.68 293.427 350.358C292.951 350.022 292.433 349.952 291.929 349.952C291.551 349.952 291.033 349.994 290.543 350.204C290.137 350.386 289.843 350.624 289.647 350.862L290.529 351.632ZM295.897 350.106L295.897 356.448L299.929 352.57L299.929 356L301.301 356L301.301 349.574L297.269 353.452L297.269 350.106L295.897 350.106ZM303.034 350.106L303.034 356L305.792 356C306.058 356 306.66 355.972 307.15 355.608C307.444 355.384 307.794 354.978 307.794 354.264C307.794 353.732 307.598 353.368 307.332 353.13C307.108 352.934 306.814 352.794 306.534 352.738C307.01 352.5 307.234 352.066 307.234 351.59C307.234 350.974 306.898 350.624 306.688 350.456C306.24 350.12 305.694 350.106 305.344 350.106L303.034 350.106ZM304.406 352.402L304.406 351.226L305.078 351.226C305.288 351.226 305.498 351.212 305.68 351.338C305.82 351.436 305.918 351.59 305.918 351.8C305.918 351.94 305.876 352.136 305.652 352.276C305.61 352.304 305.428 352.402 305.106 352.402L304.406 352.402ZM304.406 354.88L304.406 353.522L305.47 353.522C305.666 353.522 305.946 353.536 306.156 353.676C306.296 353.76 306.422 353.928 306.422 354.194C306.422 354.46 306.268 354.628 306.142 354.712C305.932 354.852 305.652 354.88 305.428 354.88L304.406 354.88ZM313.539 350.792C312.979 350.064 312.223 349.952 311.789 349.952C310.235 349.952 308.919 351.128 308.919 353.046C308.919 354.67 309.955 356.182 311.775 356.182C312.195 356.182 312.937 356.084 313.539 355.384L313.539 356L314.911 356L314.911 350.106L313.539 350.106L313.539 350.792ZM311.957 351.184C312.825 351.184 313.623 351.8 313.623 353.088C313.623 354.32 312.825 354.95 311.957 354.95C310.963 354.95 310.319 354.096 310.319 353.074C310.319 352.024 310.963 351.184 311.957 351.184Z" fill="#027DE2"/>
<path d="M123.868 73L125.24 73L125.24 70.55L127.676 70.55L127.676 73L129.048 73L129.048 67.106L127.676 67.106L127.676 69.29L125.24 69.29L125.24 67.106L123.868 67.106L123.868 73ZM135.098 67.792C134.538 67.064 133.782 66.952 133.348 66.952C131.794 66.952 130.478 68.128 130.478 70.046C130.478 71.67 131.514 73.182 133.334 73.182C133.754 73.182 134.496 73.084 135.098 72.384L135.098 73L136.47 73L136.47 67.106L135.098 67.106L135.098 67.792ZM133.516 68.184C134.384 68.184 135.182 68.8 135.182 70.088C135.182 71.32 134.384 71.95 133.516 71.95C132.522 71.95 131.878 71.096 131.878 70.074C131.878 69.024 132.522 68.184 133.516 68.184ZM139.582 72.314C140.198 73.07 141.024 73.182 141.346 73.182C142.746 73.182 144.202 72.006 144.202 70.018C144.202 68.142 142.886 66.952 141.332 66.952C140.744 66.952 140.086 67.148 139.582 67.75L139.582 67.106L138.21 67.106L138.21 76.206L139.582 76.206L139.582 72.314ZM141.164 68.184C142.158 68.184 142.802 69.024 142.802 70.074C142.802 71.096 142.158 71.95 141.164 71.95C140.296 71.95 139.498 71.32 139.498 70.088C139.498 68.8 140.296 68.184 141.164 68.184ZM145.2 76.206L146.74 76.206L151.43 67.106L149.89 67.106L148.182 70.55L146.502 67.106L144.85 67.106L147.37 72.076L145.2 76.206ZM155.202 67.106L155.202 69.29L153.424 67.106L151.772 67.106L154.054 69.794L151.548 73L153.256 73L155.034 70.634L155.202 70.83L155.202 73L156.574 73L156.574 70.83L156.742 70.634L158.52 73L160.228 73L157.722 69.794L160.004 67.106L158.352 67.106L156.574 69.29L156.574 67.106L155.202 67.106ZM161.124 73L162.496 73L162.496 70.55L164.932 70.55L164.932 73L166.304 73L166.304 67.106L164.932 67.106L164.932 69.29L162.496 69.29L162.496 67.106L161.124 67.106L161.124 73ZM168.042 73L170.184 73C170.772 73 171.388 73 171.906 72.496C172.172 72.23 172.438 71.768 172.438 71.082C172.438 70.732 172.368 70.228 171.976 69.794C171.444 69.206 170.772 69.192 170.198 69.192L169.414 69.192L169.414 67.106L168.042 67.106L168.042 73ZM169.414 71.824L169.414 70.368L170.058 70.368C170.268 70.368 170.548 70.368 170.772 70.508C170.94 70.62 171.066 70.802 171.066 71.096C171.066 71.46 170.856 71.628 170.758 71.698C170.576 71.81 170.31 71.824 170.044 71.824L169.414 71.824ZM173.054 73L174.426 73L174.426 67.106L173.054 67.106L173.054 73ZM176.163 67.106L176.163 73.448L180.195 69.57L180.195 73L181.567 73L181.567 66.574L177.535 70.452L177.535 67.106L176.163 67.106ZM176.611 64.558C176.933 65.72 178.081 66.21 178.879 66.21C179.677 66.21 180.825 65.72 181.147 64.558L180.027 64.236C179.831 64.866 179.481 65.146 178.879 65.146C178.543 65.146 177.969 65.048 177.731 64.236L176.611 64.558ZM191.131 67.372C190.501 67.022 189.969 66.952 189.521 66.952C188.359 66.952 187.617 67.358 187.155 67.82C186.721 68.254 186.259 68.996 186.259 70.102C186.259 71.18 186.679 71.88 187.099 72.314C187.659 72.902 188.359 73.182 189.339 73.182C190.249 73.182 190.795 72.93 191.131 72.72L191.131 71.194C190.655 71.726 189.997 71.95 189.437 71.95C188.933 71.95 188.499 71.768 188.191 71.474C187.925 71.208 187.659 70.746 187.659 70.06C187.659 69.402 187.911 68.954 188.163 68.702C188.415 68.45 188.821 68.184 189.465 68.184C189.885 68.184 190.501 68.296 191.131 68.912L191.131 67.372ZM197.427 67.106L193.003 67.106L193.003 70.704C193.003 70.928 192.975 71.25 192.793 71.474C192.611 71.684 192.233 71.838 191.827 71.74L191.827 73C192.457 73.098 193.227 72.986 193.759 72.398C194.249 71.866 194.319 71.208 194.319 70.704L194.319 68.366L196.055 68.366L196.055 73L197.427 73L197.427 67.106ZM202.001 66.952C200.223 66.952 198.851 68.24 198.851 70.06C198.851 71.866 200.223 73.182 202.001 73.182C203.779 73.182 205.151 71.866 205.151 70.06C205.151 68.24 203.779 66.952 202.001 66.952ZM202.001 71.95C200.923 71.95 200.251 71.208 200.251 70.074C200.251 68.73 201.133 68.184 202.001 68.184C202.869 68.184 203.751 68.73 203.751 70.074C203.751 71.208 203.079 71.95 202.001 71.95ZM206.583 67.106L206.583 73.448L210.615 69.57L210.615 73L211.987 73L211.987 66.574L207.955 70.452L207.955 67.106L206.583 67.106ZM207.031 64.558C207.353 65.72 208.501 66.21 209.299 66.21C210.097 66.21 211.245 65.72 211.567 64.558L210.447 64.236C210.251 64.866 209.901 65.146 209.299 65.146C208.963 65.146 208.389 65.048 208.151 64.236L207.031 64.558ZM123.868 88L125.24 88L125.24 85.55L127.676 85.55L127.676 88L129.048 88L129.048 82.106L127.676 82.106L127.676 84.29L125.24 84.29L125.24 82.106L123.868 82.106L123.868 88ZM135.098 82.792C134.538 82.064 133.782 81.952 133.348 81.952C131.794 81.952 130.478 83.128 130.478 85.046C130.478 86.67 131.514 88.182 133.334 88.182C133.754 88.182 134.496 88.084 135.098 87.384L135.098 88L136.47 88L136.47 82.106L135.098 82.106L135.098 82.792ZM133.516 83.184C134.384 83.184 135.182 83.8 135.182 85.088C135.182 86.32 134.384 86.95 133.516 86.95C132.522 86.95 131.878 86.096 131.878 85.074C131.878 84.024 132.522 83.184 133.516 83.184ZM144.319 81.952C142.541 81.952 141.169 83.24 141.169 85.06C141.169 86.866 142.541 88.182 144.319 88.182C146.097 88.182 147.469 86.866 147.469 85.06C147.469 83.24 146.097 81.952 144.319 81.952ZM144.319 86.95C143.241 86.95 142.569 86.208 142.569 85.074C142.569 83.73 143.451 83.184 144.319 83.184C145.187 83.184 146.069 83.73 146.069 85.074C146.069 86.208 145.397 86.95 144.319 86.95ZM153.465 82.372C152.835 82.022 152.303 81.952 151.855 81.952C150.693 81.952 149.951 82.358 149.489 82.82C149.055 83.254 148.593 83.996 148.593 85.102C148.593 86.18 149.013 86.88 149.433 87.314C149.993 87.902 150.693 88.182 151.673 88.182C152.583 88.182 153.129 87.93 153.465 87.72L153.465 86.194C152.989 86.726 152.331 86.95 151.771 86.95C151.267 86.95 150.833 86.768 150.525 86.474C150.259 86.208 149.993 85.746 149.993 85.06C149.993 84.402 150.245 83.954 150.497 83.702C150.749 83.45 151.155 83.184 151.799 83.184C152.219 83.184 152.835 83.296 153.465 83.912L153.465 82.372ZM154.78 88L156.152 88L156.152 85.55L158.588 85.55L158.588 88L159.96 88L159.96 82.106L158.588 82.106L158.588 84.29L156.152 84.29L156.152 82.106L154.78 82.106L154.78 88ZM164.54 81.952C162.762 81.952 161.39 83.24 161.39 85.06C161.39 86.866 162.762 88.182 164.54 88.182C166.318 88.182 167.69 86.866 167.69 85.06C167.69 83.24 166.318 81.952 164.54 81.952ZM164.54 86.95C163.462 86.95 162.79 86.208 162.79 85.074C162.79 83.73 163.672 83.184 164.54 83.184C165.408 83.184 166.29 83.73 166.29 85.074C166.29 86.208 165.618 86.95 164.54 86.95ZM169.122 82.106L169.122 88L171.88 88C172.146 88 172.748 87.972 173.238 87.608C173.532 87.384 173.882 86.978 173.882 86.264C173.882 85.732 173.686 85.368 173.42 85.13C173.196 84.934 172.902 84.794 172.622 84.738C173.098 84.5 173.322 84.066 173.322 83.59C173.322 82.974 172.986 82.624 172.776 82.456C172.328 82.12 171.782 82.106 171.432 82.106L169.122 82.106ZM170.494 84.402L170.494 83.226L171.166 83.226C171.376 83.226 171.586 83.212 171.768 83.338C171.908 83.436 172.006 83.59 172.006 83.8C172.006 83.94 171.964 84.136 171.74 84.276C171.698 84.304 171.516 84.402 171.194 84.402L170.494 84.402ZM170.494 86.88L170.494 85.522L171.558 85.522C171.754 85.522 172.034 85.536 172.244 85.676C172.384 85.76 172.51 85.928 172.51 86.194C172.51 86.46 172.356 86.628 172.23 86.712C172.02 86.852 171.74 86.88 171.516 86.88L170.494 86.88ZM179.445 86.012C179.319 86.236 179.137 86.474 178.899 86.656C178.619 86.866 178.339 86.95 177.961 86.95C177.625 86.95 177.233 86.894 176.911 86.572C176.617 86.278 176.435 85.802 176.407 85.382L180.635 85.382L180.635 85.214C180.635 84.598 180.565 83.506 179.809 82.722C179.459 82.358 178.857 81.952 177.919 81.952C177.079 81.952 176.435 82.26 175.945 82.75C175.329 83.38 175.007 84.262 175.007 85.172C175.007 86.054 175.315 86.866 175.875 87.426C176.435 87.986 177.079 88.182 177.863 88.182C178.493 88.182 179.123 88.042 179.599 87.734C179.977 87.496 180.341 87.104 180.593 86.656L179.445 86.012ZM176.505 84.262C176.575 83.968 176.729 83.688 176.925 83.506C177.107 83.324 177.415 83.128 177.891 83.128C178.339 83.128 178.633 83.296 178.815 83.464C179.025 83.66 179.179 83.94 179.235 84.262L176.505 84.262ZM123.56 98.562C124.162 98.268 124.666 98.184 125.17 98.184C125.52 98.184 125.968 98.24 126.304 98.478C126.556 98.646 126.808 98.968 126.892 99.416L124.204 99.416L124.204 100.564L126.934 100.564C126.878 100.914 126.724 101.25 126.5 101.474C126.304 101.67 125.912 101.95 125.17 101.95C124.792 101.95 124.204 101.908 123.56 101.544L123.56 102.846C124.204 103.098 124.862 103.182 125.366 103.182C126.318 103.182 127.004 102.888 127.564 102.3C128.18 101.67 128.432 100.9 128.432 100.046C128.432 98.954 127.998 98.24 127.578 97.82C127.158 97.4 126.402 96.952 125.226 96.952C124.722 96.952 124.134 97.036 123.56 97.26L123.56 98.562ZM129.856 97.106L129.856 103L131.228 103L131.228 100.802L131.452 100.578L133.412 103L135.148 103L132.432 99.682L135.008 97.106L133.188 97.106L131.228 99.206L131.228 97.106L129.856 97.106ZM140.614 97.372C139.984 97.022 139.452 96.952 139.004 96.952C137.842 96.952 137.1 97.358 136.638 97.82C136.204 98.254 135.742 98.996 135.742 100.102C135.742 101.18 136.162 101.88 136.582 102.314C137.142 102.902 137.842 103.182 138.822 103.182C139.732 103.182 140.278 102.93 140.614 102.72L140.614 101.194C140.138 101.726 139.48 101.95 138.92 101.95C138.416 101.95 137.982 101.768 137.674 101.474C137.408 101.208 137.142 100.746 137.142 100.06C137.142 99.402 137.394 98.954 137.646 98.702C137.898 98.45 138.304 98.184 138.948 98.184C139.368 98.184 139.984 98.296 140.614 98.912L140.614 97.372ZM146.125 98.366L146.125 97.106L141.309 97.106L141.309 98.366L143.031 98.366L143.031 103L144.403 103L144.403 98.366L146.125 98.366ZM148.482 102.314C149.098 103.07 149.924 103.182 150.246 103.182C151.646 103.182 153.102 102.006 153.102 100.018C153.102 98.142 151.786 96.952 150.232 96.952C149.644 96.952 148.986 97.148 148.482 97.75L148.482 97.106L147.11 97.106L147.11 106.206L148.482 106.206L148.482 102.314ZM150.064 98.184C151.058 98.184 151.702 99.024 151.702 100.074C151.702 101.096 151.058 101.95 150.064 101.95C149.196 101.95 148.398 101.32 148.398 100.088C148.398 98.8 149.196 98.184 150.064 98.184ZM154.1 106.206L155.64 106.206L160.33 97.106L158.79 97.106L157.082 100.55L155.402 97.106L153.75 97.106L156.27 102.076L154.1 106.206ZM161.518 97.106L161.518 99.416C161.518 100.13 161.448 100.606 161.28 100.97C161.098 101.334 160.734 101.712 160.202 101.74L160.202 104.68L161.462 104.68L161.462 103L165.578 103L165.578 104.68L166.838 104.68L166.838 101.74L165.942 101.74L165.942 97.106L161.518 97.106ZM164.57 101.74L162.148 101.74C162.512 101.46 162.834 100.956 162.834 99.934L162.834 98.366L164.57 98.366L164.57 101.74ZM167.823 97.106L167.823 103.448L171.855 99.57L171.855 103L173.227 103L173.227 96.574L169.195 100.452L169.195 97.106L167.823 97.106ZM176.332 102.314C176.948 103.07 177.774 103.182 178.096 103.182C179.496 103.182 180.952 102.006 180.952 100.018C180.952 98.142 179.636 96.952 178.082 96.952C177.494 96.952 176.836 97.148 176.332 97.75L176.332 97.106L174.96 97.106L174.96 106.206L176.332 106.206L176.332 102.314ZM177.914 98.184C178.908 98.184 179.552 99.024 179.552 100.074C179.552 101.096 178.908 101.95 177.914 101.95C177.046 101.95 176.248 101.32 176.248 100.088C176.248 98.8 177.046 98.184 177.914 98.184ZM185.226 96.952C183.448 96.952 182.076 98.24 182.076 100.06C182.076 101.866 183.448 103.182 185.226 103.182C187.004 103.182 188.376 101.866 188.376 100.06C188.376 98.24 187.004 96.952 185.226 96.952ZM185.226 101.95C184.148 101.95 183.476 101.208 183.476 100.074C183.476 98.73 184.358 98.184 185.226 98.184C186.094 98.184 186.976 98.73 186.976 100.074C186.976 101.208 186.304 101.95 185.226 101.95ZM189.807 97.106L189.807 103L192.565 103C192.831 103 193.433 102.972 193.923 102.608C194.217 102.384 194.567 101.978 194.567 101.264C194.567 100.732 194.371 100.368 194.105 100.13C193.881 99.934 193.587 99.794 193.307 99.738C193.783 99.5 194.007 99.066 194.007 98.59C194.007 97.974 193.671 97.624 193.461 97.456C193.013 97.12 192.467 97.106 192.117 97.106L189.807 97.106ZM191.179 99.402L191.179 98.226L191.851 98.226C192.061 98.226 192.271 98.212 192.453 98.338C192.593 98.436 192.691 98.59 192.691 98.8C192.691 98.94 192.649 99.136 192.425 99.276C192.383 99.304 192.201 99.402 191.879 99.402L191.179 99.402ZM191.179 101.88L191.179 100.522L192.243 100.522C192.439 100.522 192.719 100.536 192.929 100.676C193.069 100.76 193.195 100.928 193.195 101.194C193.195 101.46 193.041 101.628 192.915 101.712C192.705 101.852 192.425 101.88 192.201 101.88L191.179 101.88ZM200.313 97.792C199.753 97.064 198.997 96.952 198.563 96.952C197.009 96.952 195.693 98.128 195.693 100.046C195.693 101.67 196.729 103.182 198.549 103.182C198.969 103.182 199.711 103.084 200.313 102.384L200.313 103L201.685 103L201.685 97.106L200.313 97.106L200.313 97.792ZM198.731 98.184C199.599 98.184 200.397 98.8 200.397 100.088C200.397 101.32 199.599 101.95 198.731 101.95C197.737 101.95 197.093 101.096 197.093 100.074C197.093 99.024 197.737 98.184 198.731 98.184ZM203.425 103L204.797 103L204.797 100.55L207.233 100.55L207.233 103L208.605 103L208.605 97.106L207.233 97.106L207.233 99.29L204.797 99.29L204.797 97.106L203.425 97.106L203.425 103ZM210.343 103L211.715 103L211.715 100.55L214.151 100.55L214.151 103L215.523 103L215.523 97.106L214.151 97.106L214.151 99.29L211.715 99.29L211.715 97.106L210.343 97.106L210.343 103ZM126.71 111.952C124.932 111.952 123.56 113.24 123.56 115.06C123.56 116.866 124.932 118.182 126.71 118.182C128.488 118.182 129.86 116.866 129.86 115.06C129.86 113.24 128.488 111.952 126.71 111.952ZM126.71 116.95C125.632 116.95 124.96 116.208 124.96 115.074C124.96 113.73 125.842 113.184 126.71 113.184C127.578 113.184 128.46 113.73 128.46 115.074C128.46 116.208 127.788 116.95 126.71 116.95ZM131.292 118L132.664 118L132.664 113.366L134.904 113.366L134.904 112.106L131.292 112.106L131.292 118ZM138.591 111.952C136.813 111.952 135.441 113.24 135.441 115.06C135.441 116.866 136.813 118.182 138.591 118.182C140.369 118.182 141.741 116.866 141.741 115.06C141.741 113.24 140.369 111.952 138.591 111.952ZM138.591 116.95C137.513 116.95 136.841 116.208 136.841 115.074C136.841 113.73 137.723 113.184 138.591 113.184C139.459 113.184 140.341 113.73 140.341 115.074C140.341 116.208 139.669 116.95 138.591 116.95ZM146.44 112.106L146.44 118L147.812 118L147.812 113.366L150.192 113.366L150.192 118L151.564 118L151.564 112.106L146.44 112.106ZM156.146 111.952C154.368 111.952 152.996 113.24 152.996 115.06C152.996 116.866 154.368 118.182 156.146 118.182C157.924 118.182 159.296 116.866 159.296 115.06C159.296 113.24 157.924 111.952 156.146 111.952ZM156.146 116.95C155.068 116.95 154.396 116.208 154.396 115.074C154.396 113.73 155.278 113.184 156.146 113.184C157.014 113.184 157.896 113.73 157.896 115.074C157.896 116.208 157.224 116.95 156.146 116.95ZM165.571 112.106L161.147 112.106L161.147 115.704C161.147 115.928 161.119 116.25 160.937 116.474C160.755 116.684 160.377 116.838 159.971 116.74L159.971 118C160.601 118.098 161.371 117.986 161.903 117.398C162.393 116.866 162.463 116.208 162.463 115.704L162.463 113.366L164.199 113.366L164.199 118L165.571 118L165.571 112.106ZM167.304 112.106L167.304 118.448L171.336 114.57L171.336 118L172.708 118L172.708 111.574L168.676 115.452L168.676 112.106L167.304 112.106ZM174.132 113.562C174.734 113.268 175.238 113.184 175.742 113.184C176.092 113.184 176.54 113.24 176.876 113.478C177.128 113.646 177.38 113.968 177.464 114.416L174.776 114.416L174.776 115.564L177.506 115.564C177.45 115.914 177.296 116.25 177.072 116.474C176.876 116.67 176.484 116.95 175.742 116.95C175.364 116.95 174.776 116.908 174.132 116.544L174.132 117.846C174.776 118.098 175.434 118.182 175.938 118.182C176.89 118.182 177.576 117.888 178.136 117.3C178.752 116.67 179.004 115.9 179.004 115.046C179.004 113.954 178.57 113.24 178.15 112.82C177.73 112.4 176.974 111.952 175.798 111.952C175.294 111.952 174.706 112.036 174.132 112.26L174.132 113.562ZM184.489 113.366L184.489 112.106L179.673 112.106L179.673 113.366L181.395 113.366L181.395 118L182.767 118L182.767 113.366L184.489 113.366ZM185.473 112.106L185.473 118.448L189.505 114.57L189.505 118L190.877 118L190.877 111.574L186.845 115.452L186.845 112.106L185.473 112.106ZM197.454 112.106L193.03 112.106L193.03 115.704C193.03 115.928 193.002 116.25 192.82 116.474C192.638 116.684 192.26 116.838 191.854 116.74L191.854 118C192.484 118.098 193.254 117.986 193.786 117.398C194.276 116.866 194.346 116.208 194.346 115.704L194.346 113.366L196.082 113.366L196.082 118L197.454 118L197.454 112.106ZM203.316 116.012C203.19 116.236 203.008 116.474 202.77 116.656C202.49 116.866 202.21 116.95 201.832 116.95C201.496 116.95 201.104 116.894 200.782 116.572C200.488 116.278 200.306 115.802 200.278 115.382L204.506 115.382L204.506 115.214C204.506 114.598 204.436 113.506 203.68 112.722C203.33 112.358 202.728 111.952 201.79 111.952C200.95 111.952 200.306 112.26 199.816 112.75C199.2 113.38 198.878 114.262 198.878 115.172C198.878 116.054 199.186 116.866 199.746 117.426C200.306 117.986 200.95 118.182 201.734 118.182C202.364 118.182 202.994 118.042 203.47 117.734C203.848 117.496 204.212 117.104 204.464 116.656L203.316 116.012ZM200.376 114.262C200.446 113.968 200.6 113.688 200.796 113.506C200.978 113.324 201.286 113.128 201.762 113.128C202.21 113.128 202.504 113.296 202.686 113.464C202.896 113.66 203.05 113.94 203.106 114.262L200.376 114.262ZM205.94 118L207.312 118L207.312 115.55L209.748 115.55L209.748 118L211.12 118L211.12 112.106L209.748 112.106L209.748 114.29L207.312 114.29L207.312 112.106L205.94 112.106L205.94 118ZM217.17 112.792C216.61 112.064 215.854 111.952 215.42 111.952C213.866 111.952 212.55 113.128 212.55 115.046C212.55 116.67 213.586 118.182 215.406 118.182C215.826 118.182 216.568 118.084 217.17 117.384L217.17 118L218.542 118L218.542 112.106L217.17 112.106L217.17 112.792ZM215.588 113.184C216.456 113.184 217.254 113.8 217.254 115.088C217.254 116.32 216.456 116.95 215.588 116.95C214.594 116.95 213.95 116.096 213.95 115.074C213.95 114.024 214.594 113.184 215.588 113.184Z" fill="#027DE2"/>
</svg>
