<svg width="24" height="24" viewBox="0 0 24 24" fill="none" xmlns="http://www.w3.org/2000/svg">
<path fill-rule="evenodd" clip-rule="evenodd" d="M11.8571 0C5.30904 0 0 5.30904 0 11.8571C0 18.4053 5.30904 23.7143 11.8571 23.7143C18.4053 23.7143 23.7143 18.4053 23.7143 11.8571C23.7143 5.30904 18.4053 0 11.8571 0ZM11.8575 1.97656C17.3059 1.97656 21.7385 6.40916 21.7385 11.8575C21.7385 17.3059 17.3059 21.7385 11.8575 21.7385C6.40916 21.7385 1.97656 17.3059 1.97656 11.8575C1.97656 6.40916 6.40916 1.97656 11.8575 1.97656ZM7.90527 9.88109H9.88146V8.20924C9.88146 6.71128 10.67 5.92871 12.4466 5.92871H14.8219V8.39895H13.3971C12.9406 8.39895 12.8457 8.5857 12.8457 9.05801V9.88109H14.8219L14.6441 11.8573H12.8457V17.7859H9.88146V11.8573H7.90527V9.88109Z" fill="#9091A9"/>
</svg>
