<svg width="24" height="24" viewBox="0 0 24 24" fill="none" xmlns="http://www.w3.org/2000/svg">
<path fill-rule="evenodd" clip-rule="evenodd" d="M12.1433 0C5.59517 0 0.286133 5.30904 0.286133 11.8571C0.286133 18.4053 5.59517 23.7143 12.1433 23.7143C18.6914 23.7143 24.0004 18.4053 24.0004 11.8571C24.0004 5.30904 18.6914 0 12.1433 0ZM12.1436 1.97656C17.592 1.97656 22.0246 6.40916 22.0246 11.8575C22.0246 17.3059 17.592 21.7385 12.1436 21.7385C6.69529 21.7385 2.2627 17.3059 2.2627 11.8575C2.2627 6.40916 6.69529 1.97656 12.1436 1.97656ZM14.5398 7.03263C13.9143 7.00398 13.7266 6.99805 12.1436 6.99805C10.5607 6.99805 10.373 7.00299 9.7485 7.03164C8.13988 7.10476 7.39091 7.86658 7.31779 9.46236C7.29012 10.0868 7.2832 10.2746 7.2832 11.8575C7.2832 13.4404 7.29012 13.6282 7.31779 14.2526C7.39189 15.8445 8.13791 16.6092 9.7485 16.6834C10.373 16.712 10.5607 16.7179 12.1436 16.7179C13.7276 16.7179 13.9143 16.711 14.5398 16.6834C16.1484 16.6102 16.8964 15.8464 16.9705 14.2526C16.9982 13.6282 17.0041 13.4404 17.0041 11.8575C17.0041 10.2746 16.9982 10.0878 16.9705 9.46236C16.8964 7.86757 16.1474 7.10575 14.5398 7.03263ZM12.1434 5.92871C10.5328 5.92871 10.3322 5.93563 9.69887 5.96527C7.54482 6.06408 6.34922 7.25869 6.25042 9.41273C6.22176 10.0461 6.21484 10.2477 6.21484 11.8573C6.21484 13.4679 6.22176 13.6694 6.25042 14.3018C6.34922 16.4549 7.54482 17.6515 9.69887 17.7503C10.3322 17.7789 10.5328 17.7859 12.1434 17.7859C13.754 17.7859 13.9556 17.7789 14.589 17.7503C16.739 17.6515 17.9396 16.4569 18.0364 14.3018C18.0651 13.6694 18.072 13.4679 18.072 11.8573C18.072 10.2477 18.0651 10.0461 18.0364 9.41273C17.9396 7.26165 16.743 6.06309 14.589 5.96527C13.9556 5.93563 13.754 5.92871 12.1434 5.92871ZM9.09863 11.8568C9.09863 10.1751 10.4622 8.8125 12.143 8.8125C13.8237 8.8125 15.1873 10.1761 15.1873 11.8568C15.1873 13.5386 13.8237 14.9011 12.143 14.9011C10.4622 14.9011 9.09863 13.5386 9.09863 11.8568ZM12.1432 13.8332C11.0513 13.8332 10.167 12.9489 10.167 11.857C10.167 10.7662 11.0513 9.88086 12.1432 9.88086C13.234 9.88086 14.1204 10.7652 14.1204 11.857C14.1204 12.9489 13.234 13.8332 12.1432 13.8332ZM14.5957 8.69287C14.5957 8.29961 14.9149 7.98145 15.3071 7.98145C15.7014 7.98145 16.0195 8.29961 16.0195 8.69287C16.0195 9.08614 15.7004 9.4043 15.3071 9.4043C14.9139 9.4043 14.5957 9.08515 14.5957 8.69287Z" fill="#9091A9"/>
</svg>
