<svg width="25" height="24" viewBox="0 0 25 24" fill="none" xmlns="http://www.w3.org/2000/svg">
<path fill-rule="evenodd" clip-rule="evenodd" d="M12.4997 0C5.95161 0 0.642578 5.30904 0.642578 11.8571C0.642578 18.4053 5.95161 23.7143 12.4997 23.7143C19.0478 23.7143 24.3569 18.4053 24.3569 11.8571C24.3569 5.30904 19.0478 0 12.4997 0ZM12.5001 1.97656C17.9485 1.97656 22.381 6.40916 22.381 11.8575C22.381 17.3059 17.9485 21.7385 12.5001 21.7385C7.05174 21.7385 2.61914 17.3059 2.61914 11.8575C2.61914 6.40916 7.05174 1.97656 12.5001 1.97656ZM13.7834 9.83873C13.7834 9.19061 13.2042 8.66359 12.4921 8.66359C11.7805 8.66359 11.2007 9.19061 11.2007 9.83873C11.2007 10.4863 11.7805 11.0137 12.4921 11.0137C13.2042 11.0137 13.7834 10.4863 13.7834 9.83873ZM15.6109 9.83873C15.6109 11.4036 14.2125 12.6766 12.4921 12.6766C10.7721 12.6766 9.37322 11.4036 9.37322 9.83873C9.37322 8.2733 10.7721 7 12.4921 7C14.2125 7 15.6109 8.2733 15.6109 9.83873ZM15.573 14.3109C15.0091 14.6332 14.3968 14.8618 13.7619 14.9935L15.5054 16.5805C15.8626 16.9049 15.8626 17.4317 15.5054 17.7564C15.1486 18.0812 14.5703 18.0812 14.2139 17.7564L12.4997 16.197L10.787 17.7564C10.6084 17.9186 10.3744 17.9998 10.1403 17.9998C9.9067 17.9998 9.67306 17.9186 9.49448 17.7564C9.13767 17.4317 9.13767 16.9052 9.4941 16.5805L11.2378 14.9935C10.603 14.8618 9.99068 14.6329 9.42673 14.3109C8.99995 14.066 8.87175 13.5529 9.14066 13.1641C9.40882 12.7748 9.97276 12.6576 10.4003 12.9026C11.6771 13.6336 13.3219 13.6337 14.5994 12.9026C15.027 12.6576 15.5907 12.7748 15.8594 13.1641C16.1284 13.5525 15.9998 14.066 15.573 14.3109Z" fill="#9091A9"/>
</svg>
